<?xml version="1.0" encoding="utf-8"?>
<!-- Generator: Adobe Illustrator 23.0.6, SVG Export Plug-In . SVG Version: 6.00 Build 0)  -->
<svg version="1.1" id="Capa_1" xmlns="http://www.w3.org/2000/svg" xmlns:xlink="http://www.w3.org/1999/xlink" x="0px" y="0px"
	 viewBox="0 0 1029 269" style="enable-background:new 0 0 1029 269;" xml:space="preserve">
<style type="text/css">
	.st0{fill:#fff;}
	.st1{fill-rule:evenodd;clip-rule:evenodd;fill:#fff;}
</style>
<rect x="248.5" y="25.3" class="st0" width="2" height="218.4"/>
<g>
	<path class="st0" d="M308.5,176.5c-5.2-2.7-9.2-6.5-12-11.4s-4.2-10.5-4.2-16.9v-32.9c0-6.4,1.4-12.1,4.2-17s6.8-8.6,12-11.3
		c5.2-2.7,11.2-4,18-4c6.7,0,12.6,1.3,17.8,3.9c5.1,2.6,9.1,6.2,11.9,10.8c2.8,4.5,4.2,9.7,4.2,15.4v0.5c0,1.5-0.7,2.2-2.2,2.2
		h-11.3c-0.6,0-1.2-0.1-1.6-0.3c-0.4-0.2-0.6-0.5-0.6-0.9v-1.1c0-4.9-1.7-8.9-5-12.1s-7.7-4.8-13.3-4.8c-5.5,0-10,1.7-13.3,5
		c-3.4,3.3-5,7.7-5,13.1v34c0,5.4,1.8,9.8,5.3,13.1s8.1,5,13.8,5c5.4,0,9.7-1.4,12.9-4.3c3.1-2.9,4.7-6.8,4.7-11.8v-8.2
		c0-0.5-0.3-0.8-0.8-0.8h-16.1c-1.5,0-2.2-0.7-2.2-2.2v-9c0-1.5,0.7-2.2,2.2-2.2h30.4c1.5,0,2.2,0.7,2.2,2.2v16.9
		c0,10.4-3.1,18.6-9.2,24.4c-6.1,5.8-14.4,8.7-24.7,8.7C319.7,180.5,313.7,179.1,308.5,176.5z"/>
	<path class="st0" d="M439.5,97.7h-45.7c-0.5,0-0.8,0.3-0.8,0.8v25.2c0,0.5,0.3,0.8,0.8,0.8h30.5c1.5,0,2.2,0.7,2.2,2.2v9.3
		c0,1.5-0.7,2.2-2.2,2.2h-30.5c-0.5,0-0.8,0.3-0.8,0.8v26c0,0.5,0.3,0.8,0.8,0.8h45.7c1.5,0,2.2,0.7,2.2,2.2v9.3
		c0,1.5-0.7,2.2-2.2,2.2h-60.2c-1.5,0-2.2-0.7-2.2-2.2v-91c0-1.5,0.7-2.2,2.2-2.2h60.2c1.5,0,2.2,0.7,2.2,2.2v9.3
		C441.6,97,440.9,97.7,439.5,97.7z"/>
	<path class="st0" d="M471.9,176.6c-5.3-2.8-9.3-6.7-12.2-11.8s-4.3-10.9-4.3-17.6v-31c0-6.5,1.5-12.3,4.4-17.4
		c2.9-5,7-8.9,12.2-11.7c5.2-2.8,11.2-4.2,18-4.2c6.9,0,13,1.4,18.2,4.2c5.2,2.8,9.3,6.7,12.2,11.7s4.4,10.8,4.4,17.4v31
		c0,6.6-1.5,12.5-4.4,17.6s-7,9-12.2,11.8s-11.3,4.2-18.2,4.2C483.2,180.7,477.1,179.4,471.9,176.6z M503.7,161.8
		c3.4-3.5,5.2-8.2,5.2-14v-31.7c0-5.9-1.7-10.6-5.2-14.2c-3.5-3.5-8-5.3-13.8-5.3c-5.6,0-10.2,1.8-13.6,5.3
		c-3.5,3.5-5.2,8.3-5.2,14.2v31.7c0,5.8,1.7,10.5,5.2,14c3.4,3.5,8,5.3,13.6,5.3C495.7,167.1,500.3,165.4,503.7,161.8z"/>
	<path class="st0" d="M595.6,87.5c4.4,2.4,7.7,5.7,10.1,10s3.6,9.3,3.6,14.9c0,5.5-1.2,10.4-3.7,14.7s-5.9,7.6-10.4,9.9
		s-9.7,3.5-15.6,3.5H558c-0.5,0-0.8,0.3-0.8,0.8v35.9c0,1.5-0.7,2.2-2.2,2.2h-11.4c-1.5,0-2.2-0.7-2.2-2.2V86.1
		c0-1.5,0.7-2.2,2.2-2.2h36.9C586.2,83.9,591.3,85.1,595.6,87.5z M589.4,123.6c2.8-2.7,4.2-6.3,4.2-10.8s-1.4-8.2-4.2-11
		s-6.5-4.2-11.2-4.2H558c-0.5,0-0.8,0.3-0.8,0.8v28.5c0,0.5,0.3,0.8,0.8,0.8h20.1C582.8,127.6,586.5,126.3,589.4,123.6z"/>
	<path class="st0" d="M637.4,176.6c-5.3-2.8-9.3-6.7-12.2-11.8s-4.3-10.9-4.3-17.6v-31c0-6.5,1.5-12.3,4.4-17.4
		c2.9-5,7-8.9,12.2-11.7c5.2-2.8,11.2-4.2,18-4.2c6.9,0,13,1.4,18.2,4.2c5.2,2.8,9.3,6.7,12.2,11.7s4.4,10.8,4.4,17.4v31
		c0,6.6-1.5,12.5-4.4,17.6s-7,9-12.2,11.8s-11.3,4.2-18.2,4.2C648.7,180.7,642.7,179.4,637.4,176.6z M669.3,161.8
		c3.4-3.5,5.2-8.2,5.2-14v-31.7c0-5.9-1.7-10.6-5.2-14.2c-3.5-3.5-8-5.3-13.8-5.3c-5.6,0-10.2,1.8-13.6,5.3
		c-3.5,3.5-5.2,8.3-5.2,14.2v31.7c0,5.8,1.7,10.5,5.2,14c3.4,3.5,8,5.3,13.6,5.3C661.2,167.1,665.8,165.4,669.3,161.8z"/>
	<path class="st0" d="M759.1,177.7l-17.8-38.9c-0.1-0.4-0.4-0.5-1-0.5h-15.9c-0.5,0-0.8,0.3-0.8,0.8v38.1c0,1.5-0.7,2.2-2.2,2.2H710
		c-1.5,0-2.2-0.7-2.2-2.2V86.1c0-1.5,0.7-2.2,2.2-2.2h36.9c5.5,0,10.4,1.2,14.7,3.5s7.6,5.6,9.9,9.8c2.4,4.2,3.5,9.1,3.5,14.5
		c0,6.3-1.6,11.6-4.8,16s-7.6,7.4-13.3,9.1c-0.3,0.1-0.5,0.3-0.5,0.5c-0.1,0.2,0,0.4,0.1,0.6l18.8,38.9l0.3,1.1c0,1-0.6,1.5-1.9,1.5
		h-12C760.4,179.4,759.6,178.8,759.1,177.7z M723.6,98.4v26.8c0,0.5,0.3,0.8,0.8,0.8h20.3c4.4,0,7.9-1.3,10.6-3.9
		c2.7-2.6,4-6,4-10.1c0-4.3-1.3-7.7-4-10.4c-2.7-2.7-6.2-4-10.6-4h-20.3C723.9,97.6,723.6,97.8,723.6,98.4z"/>
	<path class="st0" d="M855.4,86.3v9.4c0,1.5-0.7,2.2-2.2,2.2h-24.4c-0.5,0-0.8,0.3-0.8,0.8v78.6c0,1.5-0.7,2.2-2.2,2.2h-11.4
		c-1.5,0-2.2-0.7-2.2-2.2V98.7c0-0.5-0.3-0.8-0.8-0.8H788c-1.5,0-2.2-0.7-2.2-2.2v-9.4c0-1.5,0.7-2.2,2.2-2.2h65.2
		C854.7,84.1,855.4,84.8,855.4,86.3z"/>
	<path class="st0" d="M918.8,177.6l-4.2-14c-0.1-0.5-0.4-0.7-1-0.7H878c-0.5,0-0.9,0.2-1,0.7l-4.2,14c-0.4,1.2-1.2,1.8-2.5,1.8H858
		c-0.7,0-1.2-0.2-1.6-0.7c-0.3-0.5-0.4-1-0.2-1.8l29.1-91.1c0.4-1.2,1.2-1.8,2.5-1.8h15.9c1.3,0,2.1,0.6,2.5,1.8l29.3,91.1
		c0.1,0.2,0.1,0.5,0.1,0.8c0,1.1-0.6,1.6-1.9,1.6h-12.4C920,179.4,919.2,178.8,918.8,177.6z M881.9,150.5h27.8c0.5,0,0.8-0.3,0.7-1
		l-14-46.3c-0.1-0.4-0.3-0.5-0.5-0.5s-0.4,0.2-0.6,0.5l-14,46.3C881.2,150.2,881.4,150.5,881.9,150.5z"/>
	<path class="st0" d="M949.9,177.2V86.3c0-1.5,0.7-2.2,2.2-2.2h11.4c1.5,0,2.2,0.7,2.2,2.2V165c0,0.5,0.3,0.8,0.8,0.8h44.9
		c1.5,0,2.2,0.7,2.2,2.2v9.3c0,1.5-0.7,2.2-2.2,2.2H952C950.6,179.4,949.9,178.7,949.9,177.2z"/>
</g>
<g>
	<path class="st1" d="M139.7,93.7L139.7,93.7L139.7,93.7z M69.6,180.7L69.6,180.7L69.6,180.7z M173.9,147.5L173.9,147.5L173.9,147.5
		c0.1-0.2,0.4-0.3,0.5-0.2c0.1,0,0.1,0.1,0.2,0.2l0,0l0,0v0v0l0,0c0,0,0.1,0.1,0.1,0.2l0,0l0,0c0.1,0,0.2,0.1,0.4,0
		c0.1,0,0.3-0.1,0.3-0.2l0,0l0,0l0,0l0,0c0.1-0.1,0.1-0.3,0-0.4c0-0.1-0.1-0.2-0.2-0.3l0,0l0,0l0,0l0,0l0,0h0h0l0,0l0,0
		c0,0-0.1,0-0.2,0c-0.2,0-0.4-0.2-0.4-0.4v0L173.9,147.5z M174.8,146.4l-0.9,1.1l0,0l0,0l0,0l0,0c-0.1,0.1-0.2,0.2-0.3,0.2
		c-0.1,0-0.2,0-0.4,0l0,0l0,0l0,0c-0.1-0.1-0.2-0.2-0.2-0.3c0-0.1,0-0.3,0.1-0.4l0,0l0,0c0-0.1,0.1-0.1,0.2-0.2l0,0c0,0,0,0,0,0h0h0
		l0,0c0.1,0,0.3-0.1,0.3-0.3c0,0,0-0.1,0-0.2v0v0l0,0l0,0c0.1-0.1,0.2-0.2,0.3-0.2c0.1,0,0.3,0,0.4,0l0,0l0,0l0,0
		C174.6,146.1,174.7,146.3,174.8,146.4L174.8,146.4L174.8,146.4L174.8,146.4L174.8,146.4C174.7,146.4,174.7,146.4,174.8,146.4
		L174.8,146.4L174.8,146.4L174.8,146.4L174.8,146.4C174.8,146.4,174.8,146.4,174.8,146.4 M180.4,147.4L180.4,147.4L180.4,147.4
		c0.2,0,0.4,0.1,0.5,0.3c0,0.1,0,0.2-0.1,0.3l0,0l0,0l0,0l0,0v0l0,0l0,0c0,0,0,0.1,0,0.2l0,0l0,0c0,0.1,0.1,0.2,0.2,0.3
		c0.1,0.1,0.2,0.1,0.4,0.1l0,0l0,0l0,0l0,0c0.1,0,0.3-0.1,0.4-0.2c0.1-0.1,0.1-0.2,0.1-0.4l0,0l0,0l0,0v0v0l0,0c0,0,0-0.1-0.1-0.2
		c-0.1-0.2,0-0.4,0.1-0.5h0L180.4,147.4z M181.8,147.5l-1.4-0.1l0,0l0,0l0,0l0,0c-0.1,0-0.3,0-0.4-0.1c-0.1-0.1-0.1-0.2-0.2-0.3l0,0
		l0,0l0,0c0-0.1,0-0.3,0.1-0.4c0.1-0.1,0.2-0.1,0.4-0.2l0,0l0,0c0.1,0,0.2,0,0.3,0.1l0,0l0,0l0,0l0,0l0,0l0,0c0.1,0.1,0.3,0.1,0.5,0
		c0,0,0.1,0,0.2,0h0h0l0,0l0,0l0,0c0.1,0,0.3,0,0.4,0.1c0.1,0.1,0.1,0.2,0.1,0.3l0,0l0,0C181.9,147.1,181.9,147.3,181.8,147.5
		L181.8,147.5L181.8,147.5L181.8,147.5L181.8,147.5L181.8,147.5L181.8,147.5L181.8,147.5L181.8,147.5
		C181.8,147.4,181.8,147.5,181.8,147.5 M160.9,179L160.9,179L160.9,179c0.2,0.1,0.2,0.4,0.1,0.5c0,0.1-0.1,0.1-0.2,0.1l0,0l0,0h0h0
		l0,0l0,0c-0.1,0-0.1,0.1-0.2,0.1l0,0l0,0c-0.1,0.1-0.1,0.2-0.1,0.4c0,0.1,0.1,0.3,0.2,0.4l0,0l0,0l0,0c0.1,0.1,0.2,0.1,0.4,0.1
		c0.1,0,0.2-0.1,0.3-0.2l0,0l0,0l0,0l0,0v0l0,0c0,0,0-0.1,0-0.2c0-0.2,0.2-0.4,0.4-0.3h0L160.9,179z M155.3,174.6L155.3,174.6
		L155.3,174.6c0.1-0.2,0.4-0.2,0.5-0.1c0.1,0,0.1,0.1,0.1,0.2l0,0l0,0l0,0v0v0l0,0c0,0.1,0.1,0.1,0.1,0.2l0,0l0,0
		c0.1,0.1,0.2,0.1,0.4,0.1c0.1,0,0.3-0.1,0.4-0.2l0,0l0,0l0,0c0.1-0.1,0.1-0.2,0.1-0.4c0-0.1,0-0.2-0.2-0.3l0,0l0,0l0,0l0,0l0,0l0,0
		h0l0,0l0,0c0,0-0.1,0-0.2,0c-0.2,0-0.3-0.2-0.3-0.4v0L155.3,174.6z M156.3,173.6l-1,1l0,0l0,0l0,0l0,0c-0.1,0.1-0.2,0.2-0.4,0.2
		c-0.1,0-0.3,0-0.4-0.1l0,0l0,0l0,0c-0.1-0.1-0.1-0.2-0.2-0.3c0-0.1,0-0.3,0.1-0.4l0,0l0,0l0,0c0-0.1,0.1-0.1,0.2-0.2l0,0
		c0,0,0,0,0,0h0l0,0h0l0,0c0.2,0,0.3-0.1,0.3-0.3c0,0,0-0.1,0-0.2l0,0v0l0,0l0,0c0.1-0.1,0.2-0.2,0.4-0.2s0.3,0,0.4,0.1l0,0l0,0l0,0
		c0.1,0.1,0.1,0.2,0.2,0.3l0,0L156.3,173.6L156.3,173.6L156.3,173.6C156.2,173.6,156.2,173.6,156.3,173.6L156.3,173.6L156.3,173.6
		L156.3,173.6C156.3,173.6,156.3,173.6,156.3,173.6 M161.9,180l-1.1-1l0,0l0,0l0,0l0,0c-0.1-0.1-0.2-0.2-0.2-0.4
		c0-0.1,0-0.2,0.1-0.4l0,0l0,0l0,0c0.1-0.1,0.2-0.1,0.3-0.2c0.1,0,0.3,0,0.4,0.1l0,0l0,0c0.1,0,0.1,0.1,0.2,0.2l0,0c0,0,0,0,0,0v0v0
		l0,0c0,0.2,0.1,0.3,0.3,0.3c0,0,0.1,0,0.2,0l0,0l0,0l0,0l0,0c0.1,0.1,0.2,0.2,0.2,0.4s0,0.2-0.1,0.4l0,0l0,0l0,0
		c-0.1,0.1-0.2,0.1-0.3,0.2l0,0L161.9,180L161.9,180L161.9,180L161.9,180C162,179.9,162,179.9,161.9,180L161.9,180L161.9,180
		L161.9,180C162,180,161.9,180,161.9,180 M124.7,199.2L124.7,199.2L124.7,199.2c0.2,0.1,0.2,0.4,0.1,0.5c0,0.1-0.1,0.1-0.2,0.1l0,0
		l0,0h0h0l0,0c-0.1,0-0.1,0.1-0.2,0.1l0,0l0,0c-0.1,0.1-0.1,0.2-0.1,0.4c0,0.1,0.1,0.3,0.2,0.4l0,0l0,0l0,0l0,0
		c0.1,0.1,0.2,0.1,0.4,0.1s0.2,0,0.3-0.2l0,0l0,0l0,0l0,0l0,0v0l0,0l0,0c0,0,0-0.1,0-0.2c0-0.2,0.2-0.4,0.4-0.3h0L124.7,199.2z
		 M125.7,200.2l-1-1l0,0l0,0l0,0l0,0c-0.1-0.1-0.2-0.2-0.2-0.4s0-0.2,0.1-0.4l0,0l0,0l0,0c0.1-0.1,0.2-0.1,0.3-0.2
		c0.1,0,0.3,0,0.4,0.1l0,0l0,0l0,0c0.1,0,0.1,0.1,0.2,0.2l0,0c0,0,0,0,0,0v0v0l0,0c0,0.2,0.1,0.3,0.3,0.3c0,0,0.1,0,0.2,0l0,0h0l0,0
		l0,0l0,0c0.1,0.1,0.2,0.2,0.2,0.4c0,0.1,0,0.2-0.1,0.4l0,0l0,0l0,0c-0.1,0.1-0.2,0.1-0.3,0.2l0,0h0l0,0l0,0c0,0,0,0-0.1,0l0,0l0,0
		C125.7,200.2,125.7,200.2,125.7,200.2 M111.8,200.8L111.8,200.8L111.8,200.8z M41,130.7c-0.2-0.1-0.2-0.4-0.1-0.5
		c0.1-0.2,0.4-0.2,0.5-0.1c0,0,1.6,1.1,3.3,1.2l-0.1-0.1l0,0l-0.2-0.3c-0.7-1-1-1.5-2.6-2.1c-1.7-0.8-3.2-1-3.2-1
		c-0.2,0-0.4-0.2-0.3-0.4c0-0.2,0.2-0.4,0.4-0.3c0,0,1.6,0.2,3.4,1.1c0.1,0,0.3,0.1,0.4,0.2c-1-2.2-3.2-3.6-3.2-3.7
		c-0.2-0.1-0.2-0.3-0.1-0.5c0.1-0.2,0.4-0.2,0.5-0.1c0,0,2.9,1.9,3.7,4.8c0.6,0.5,1,1,1.5,1.6l0.2,0.3l0,0c0.2,0.2,0.3,0.5,0.5,0.6
		c0,0,0,0,0,0.1L41,130.7z M45.8,131.5l-4.8-0.7c0,0,2.1,1.5,4.4,1.3c0.3,0.3,0.6,0.5,0.9,0.8c0.4,0.4,0.8,0.8,1.1,1.2
		c0.6,0.9,1.5,2.5,1.6,2.5c0.1,0.2,0.3,0.2,0.5,0.1c0.2-0.1,0.2-0.3,0.1-0.5c0,0-0.9-1.6-1.6-2.6c-0.2-0.3-0.4-0.5-0.6-0.8
		c0-3.1-2.3-5.7-2.3-5.7c-0.1-0.1-0.4-0.2-0.5,0c-0.1,0.1-0.2,0.4,0,0.5c0,0,1.7,2,2.1,4.5C46.3,131.9,46.1,131.8,45.8,131.5
		L45.8,131.5z M69,132.1L69,132.1L69,132.1z M160.6,65h-43.1v105.5c24.8-0.6,44.7-17.7,44.7-38.7c0,0,0,0,0-0.1l0,0V66.3
		C162.2,65.6,161.5,65,160.6,65 M105.4,106.5c0,0.1,0.1,0.1,0.2,0.2h0l0,0h0.3h7.9l0.1-0.5v-5.5c0,0,0-0.3-0.5-0.4
		c-0.1,0-0.5,0-1.1,0v1.4c0,0.5-0.3,0.9-0.7,0.9c-0.4,0-0.7-0.4-0.7-0.9v-1.4h-1.4h-1.3v1.4c0,0.5-0.3,0.9-0.7,0.9
		c-0.4,0-0.7-0.4-0.7-0.9v-1.4h-1.1c0,0-0.1,0-0.3,0v5.9l0,0L105.4,106.5L105.4,106.5z M105.4,107h0.3l0,0h0.3h7.7
		c0,0.1,0,0.2-0.1,0.2l-1.2,1.3v25.3l0,0h0.4c0.5,0,0.8,0.4,0.8,0.8v5c0.2,0,0.4,0.1,0.5,0.2l0,0c0.1,0.1,0.2,0.3,0.2,0.5v0l0,0v0.6
		l0,0l0,0l0,0c0,0.2-0.1,0.4-0.2,0.5c-0.1,0.1-0.3,0.2-0.5,0.2h0l0,0l0,0h-7.5l-5.7,8.3c0,0.2-0.2,0.3-0.4,0.3H89.2
		c-0.2,0-0.3-0.1-0.4-0.3l-5.7-8.3h-7.3l0,0l0,0h0c-0.2,0-0.3-0.1-0.5-0.2c-0.1-0.1-0.2-0.3-0.2-0.5l0,0l0,0l0,0v-0.6l0,0v0
		c0-0.2,0.1-0.3,0.2-0.5c0.1-0.1,0.3-0.2,0.5-0.2v-5c0-0.5,0.4-0.8,0.8-0.8H77v-25.3l-1.4-1.6h8.7c0.1,0,0.2-0.1,0.2-0.3l0.1-0.4
		c0,0,0,0,0-0.1l0,0v-5.5c0,0,0,0,0-0.1v0l2.8-1.6h0v0h2.5V88.7v-0.4v-2.7c0,0,0-0.1,0-0.1c-0.5-0.2-1.5-0.7-1.6-1.8h12.3
		c0.1,0-0.8,1.5-1.7,1.8v0l0,0l0,0l0,0v2.7v0.4v10.2h2.5v0c0.1,0,0.2,0,0.4,0l3.2,1.9v0v6.1c0,0.1,0,0.1,0.1,0.1L105.4,107
		L105.4,107z M50.9,149L50.9,149L50.9,149L50.9,149c0.2,0,0.4,0.1,0.5,0.2c0.3,0.1,0.6,0.2,1,0.4c-0.6-1.6-1.1-3-1.4-3.7
		c-0.1-0.3-0.2-0.6-0.3-1.1c-0.2-0.3-0.4-0.6-0.6-0.9c-0.4-0.5-1.5-1.3-2.4-2c-0.2-0.1-0.4-0.3-0.5-0.4l-0.2-0.1
		c-0.3,0.3-0.7,0.5-1.1,0.5l0,0l0,0l0,0l0,0c-0.5,0-0.9-0.2-1.2-0.5c-0.3-0.3-0.5-0.7-0.5-1.2l0,0l0,0l0,0l0,0
		c0-0.5,0.2-0.9,0.5-1.2c0.3-0.3,0.7-0.5,1.2-0.5l0,0l0,0l0,0l0,0c0.5,0,0.9,0.2,1.2,0.5c0.3,0.3,0.5,0.7,0.5,1.2l0,0l0,0l0,0l0,0
		c0,0.2,0,0.5-0.1,0.6l0.2,0.1c0.2,0.1,0.4,0.3,0.5,0.4c0.8,0.6,1.7,1.2,2.2,1.8c-0.4-2-0.5-4.1-0.5-4.1l0,0l0,0
		c-0.5-0.1-1-0.2-1.6-0.5c-2.2-0.7-8.1-4.6-8.7-6.4c-0.6-1.8,0.4-1.9-0.7-2c-1.1,0-2.2-1.9-2.1-4.1c0.1-2.2,0.9-1.5,0.5-2.7
		c-0.3-1.1-1.9-3.1-1.1-3.5c0.8-0.5,1.9,1.7,2.7,1.9s2.1-0.3,3,0.4c0.5,0.3,1.1,0.9,2,1.6c0.1-1.4,0.5-2.4,1.3-3.1
		c1.1-1.1,1.8-3.1,1.9-4.3c0.1-1.3,1.4-0.2,1.6,0.9c0.2,1.1,1.5,1.5,2.5,3s0.4,1.6,0.9,3.2c0.5,1.6,1.6,2.3,2.1,0.5
		c0.5-1.8,0.2-3.2,2.2-3.7c2-0.5,2.1-1.1,3.2-1.9s2.2-0.4,1.3,1.3s0.1,4,0.6,5c0.5,1-0.1,2.4-0.8,3.8c-0.7,1.4,1.1,2-0.2,3.7
		c-1.4,1.7-4.1,4.3-5.2,4.8c-1.1,0.6-3.6,1.8-3.6,1.8l0,0c-0.1,1.1-0.1,3.1,0.7,5.6c0.1-0.6,0.4-1.1,0.6-1.4
		c0.1-0.1,0.2-0.2,0.3-0.3l0,0c-0.1-0.2-0.2-0.5-0.2-0.7l0,0l0,0l0,0l0,0c0-0.5,0.2-0.9,0.5-1.2c0.3-0.3,0.7-0.5,1.2-0.5l0,0l0,0
		l0,0l0,0c0.5,0,0.9,0.2,1.2,0.5c0.3,0.3,0.5,0.7,0.5,1.2l0,0l0,0l0,0l0,0c0,0.5-0.2,0.9-0.5,1.2c-0.3,0.3-0.7,0.5-1.2,0.5l0,0l0,0
		l0,0l0,0c-0.4,0-0.8-0.1-1.1-0.4c0,0-0.1,0.1-0.1,0.2c-0.4,0.5-0.9,1.6-0.4,3c0,0,0,0.1,0,0.2c1.5,3.3,2.9,5.9,3.7,7.3
		c0.5,0.2,1.2,0.4,1.9,0.9c1.5,1,0.9,1.3,2,2.6c1.1,1.3,2.3,1.6,2.1-0.3c-0.2-1.9-1-3.1,0.6-4.3c1.6-1.2,1.6-1.8,2.2-3
		c0.6-1.2,1.9-1.2,1.7,0.7c-0.2,1.9,1.6,3.6,2.5,4.3c0.8,0.7,0.8,2.3,0.7,3.8c-0.1,1.6,1.8,1.4,1.2,3.5c-0.6,2.1-2.1,5.5-2.9,6.5
		c-0.4,0.5-1,1.1-1.5,1.7c1.1,1,2.4,2.2,3.3,2.9c1,0.8,4.3,2.5,7.2,3.9c-0.1-1.2,0.3-2.2,0.7-2.7c0.1-0.1,0.2-0.2,0.3-0.3l0,0
		c-0.1-0.2-0.2-0.5-0.2-0.7l0,0l0,0l0,0l0,0c0-0.5,0.2-0.9,0.5-1.2c0.3-0.3,0.7-0.5,1.2-0.5l0,0l0,0l0,0l0,0c0.5,0,0.9,0.2,1.2,0.5
		c0.3,0.3,0.5,0.7,0.5,1.2l0,0l0,0l0,0l0,0c0,0.5-0.2,0.9-0.5,1.2c-0.3,0.3-0.7,0.5-1.2,0.5l0,0l0,0l0,0l0,0c-0.4,0-0.8-0.1-1.1-0.4
		c0,0-0.1,0.1-0.1,0.2c-0.4,0.5-0.8,1.4-0.5,2.7c1.3,0.6,2.5,1.1,3.3,1.4c1.5,0.5,3.8,1.8,5.6,2.8c0,0-0.1,0-0.1,0
		c0.9,0.2,1.9-0.3,3.5-0.1c1.8,0.2,1.4,0.7,3,1.3c1.5,0.6,2.8,0.3,1.7-1.2s-2.3-2.2-1.4-4.1c0.9-1.8,0.5-2.3,0.5-3.7
		c0-1.4,1.1-2,1.8-0.2c0.7,1.8,3.2,2.4,4.2,2.7c1.1,0.3,1.8,1.6,2.4,3.1c0.6,1.4,2.2,0.4,2.7,2.5s0.7,5.9,0.5,7.1
		c-0.1,0.6-0.4,1.6-0.5,2.4v0l0.6,0.1c0,0,6.6,4.2,11.1,7.6c4.5-3.4,11.1-7.6,11.1-7.6h0.1c0.1-0.4,2.6-6.5,7.4-10.8
		c4.9-4.4,8.6-4.6,10.2-5.7s4.7-4.4,4.4-3c-0.3,1.4-1.1,2.4-2.7,4.7c-1.6,2.3-5.1,6.5-5.1,6.5s2.8-0.5,4.9-0.7
		c1.4-0.8,4.5-2.4,6.2-3.5l0.2-0.1c0.7-1.1,1.1-2.9,1.1-3.4c-0.4,0-1.1-0.1-1.3-1.1c-0.3-1.2,1-1.5,1-1.5s0.2-0.9,1.2-0.8
		c1.1,0,1.1,1.1,1.1,1.2c0,0,1,0.5,0.7,1.5c-0.4,1.5-1.9,0.8-1.9,0.8l-0.2,0c-0.1,0.5-0.3,1.6-0.7,2.7c2.4-1.3,5.5-2.7,5.5-3.1
		c0,0,0,0,0,0l-0.1,0c0,0-0.6-6.8,2-12.9c2.5-6.2,5.8-7.9,6.7-9.5c0.9-1.6,2.3-6,2.7-4.7c0.4,1.3,0,2.6-0.4,5.4
		c-0.5,2.8-1.8,8.1-1.8,8.1s1-0.7,2.1-1.5c0.3-0.7,2-4.5,3.2-7.3c0.1-1.7-1.1-4.1-1.2-4.1c0,0,0-0.1,0-0.2c-0.3,0-1.1,0-1.4-0.9
		c-0.4-1.2,0.8-1.6,0.8-1.6s0.1-0.9,1.1-0.9s1.3,1,1.3,1.1c0,0,1,0.3,0.8,1.4c-0.3,1.6-1.8,1-1.8,1h-0.1c0.2,0.5,0.8,1.6,1,2.9
		l0.5-1.1c1-2.3,1.3-6.4,1.3-6.4c-0.8-1.2-3.8-6.2-4.5-11.9c-0.8-6.6,1.1-9.7,1.1-11.6c0-1.9-1-6.3,0-5.3c1,1,1.3,2.2,2.3,4.9
		c1,2.7,2.5,8,2.5,8s2.2-4.8,3.2-6.2c0.9-1.3,0.6-3.3,1.4-4.6c0.8-1.3,1.7-0.7,1.4,0.3c-0.4,1-0.8,3-0.7,4.5c0.1,1.5,0.3,4.3,0,6
		s-0.4,2.1-0.4,2.1s3.4-4.6,5.9-6.9c2.5-2.3,5.3-3.4,4.2-1.9c-1.1,1.5-2.2,3.4-3,6.4c-0.8,3.1-1.5,6.1-3.8,8.5
		c-2.3,2.4-7.8,8.5-7.8,8.5s-1.1,2.4-1.5,3.9c0,0.2-0.1,0.4-0.2,0.8c0.7-0.7,1.6-1.2,2-1.5c-0.2-0.3-0.6-0.9,0-1.6
		c0.7-1,1.7-0.2,1.7-0.2s0.8-0.4,1.4,0.4c0.6,0.8-0.1,1.6-0.1,1.6c0,0,0.3,1-0.6,1.5c-1.4,0.7-1.9-0.9-1.9-0.9l-0.1-0.2
		c-0.8,0.5-2.9,1.9-3.2,3.3c0,0.1,0,0.2-0.1,0.2c-0.9,2.7-2,5.8-2.1,6.4c0.4-0.2,0.7-0.4,1-0.5c1.5-0.7,2.2-2.6,3.5-3.3
		c1.3-0.7,1.9,0.3,1.1,1c-0.8,0.7-2.1,2.2-2.8,3.6s-1.9,3.9-3,5.2s-1.3,1.6-1.3,1.6s5.2-2.4,8.5-3.2c3.3-0.8,6.3-0.3,4.6,0.4
		c-1.7,0.7-3.6,1.8-5.8,4.1s-4.3,4.6-7.5,5.5c-3.2,0.9-11,3.6-11,3.6l-0.2-0.2c-0.4,0.4-1.9,1.6-3.6,2.4c0.9,0.1,1.8,0.3,2.1,0.4
		c0-0.1-0.1-1.2,1-1.5c1.2-0.3,1.5,1,1.5,1s0.9,0.2,0.8,1.2c0,1.1-1.1,1.2-1.1,1.2c0,0-0.4,1-1.5,0.7c-1.5-0.4-0.8-1.9-0.8-1.9v0
		c-0.5-0.1-2.3-0.6-3.7-0.4c-1.4,0.7-3.2,1.8-4.4,2.6c0.8-0.4,1.6-0.7,2.3-0.8c1.5-0.1,1.6,1.1,0.5,1.3c-1,0.3-2.9,1.1-4.1,2
		c-1.2,0.9-3.4,2.7-4.9,3.4c-1.6,0.7-1.9,0.9-1.9,0.9s5.7,0.1,9.1,0.9c3.3,0.7,5.8,2.5,4,2.4c-1.9-0.1-4.1,0-7,1.2
		c-3,1.1-5.9,2.2-9.1,1.7c-3-0.5-10.2-1.4-11.3-1.6l0,0c-0.5,0.2-1,0.5-1.6,0.7c-3.3,1.5-6.2,3.3-8.6,5.4c1.7-0.7,4.4-0.2,4.8-0.1v0
		c0,0-0.2-1.2,1-1.5c1.2-0.3,1.5,1,1.5,1s0.9,0.2,0.8,1.2s-1.1,1.2-1.1,1.2c0,0-0.4,1-1.5,0.7c-1.4-0.4-0.9-1.7-0.9-1.9
		c-0.5-0.1-3.7-0.7-4.9,0.4c1,0.8,1.8,1.5,2.2,2.1c0.9,1.1,2.7,3.7,5.1,6.9c17.8-1,32.5-5.5,41.3-9.8c1.4-1-0.1-2.4-2.1-1.5
		c-3.4,0.8-5.6,0.9-5.5,0.5c-1.1,0-0.6-1.5,1-2.3c19.1-5.9,40.8-22.9,51-39.4c2.4-4.2,4.2-7.7-1.7-6.3c-1.2,0.5-2.8,2-4.1,1.3
		c-2-2.7-0.2-4.9,5.3-10.5c10.5-8.7,14.8-12,13.9-26.4c3.8,9.9,5.6,20-3.4,27.8c3.2,0,4.8,0.5,6.5,1.1c-6.2,3.3-7.1,6.3-8.5,9.4
		c1.6,1.4,6.2,4.4,7.9,5.9c2.4,1.8,1.4,4,0.7,5.4c-9.6,18.4-31.4,38.9-52,48.2c0.7,1.3,0,4-1.1,4.2c-10.7,4.4-22.8,7.8-35.4,9.6h0
		c0.5,0.5,1.1,1.1,1.6,1.5c6.2,5.5,19.7,13.1,26.2,13c6.5-0.1,5.2,2.7,4.3,3.5c-0.9,0.8-11.8-1.1-18.4-5.1
		c-4.5-2.7-10.8-6.7-16.6-12.5h0c-13.2,1.7-26.8,1.8-39.8,0c0.3,0,0.5,0.1,0.8,0.1c-5.7,5.8-12.1,9.7-16.5,12.4
		c-6.6,4-17.5,5.9-18.4,5.1s-2.2-3.6,4.3-3.5c6.5,0.1,20-7.5,26.2-13c0.5-0.4,1-0.9,1.5-1.5c0.5,0.1,1,0.1,1.5,0.2
		c-10.3-1.6-20.2-4.3-29.1-8.6c-1.1-0.5-1.8-2.9-1.3-4.3c-20.6-9.3-44.6-26.4-54.1-44.8c-0.7-1.4-1.7-3.6,0.7-5.4
		c1.6-1.5,6.5-4.4,8.1-5.9c-1.4-3.2-3.8-7-10.1-10.3c1.8-0.7,3.4-1.1,6.6-1.1c-6.9-5.8-7.1-10.8-7.4-17.1c0.5-4.2,1.8-8,2.9-10.7
		c0,3.7,0.1,8.4,0.9,12.8c3.5,6.6,8.5,9.2,15.4,14.6c5.4,5.6,6.3,7.7,4.8,10.6c-1.2-0.5-2.4-0.9-3.7-1.4c-4.6-0.3-3.7,2.5-1.7,6.3
		c10.1,16.5,30.9,30,51,35.6c1.2,0.1,2.3,2.1,1.3,2.3c-1.6,0.6-4.3-0.7-6,0.1c-0.5-0.2-4.7,0.3-2.1,1.3c12.4,5,24.5,7.5,35.9,8.5
		c2.3-3.2,4.1-5.7,4.9-6.7c0.5-0.6,1.5-1.5,2.7-2.5l-0.1,0c-1.3,1-2.6,0.9-3.4,0.7c-0.2,0-0.3-0.1-0.4-0.1l0,0
		c-0.2,0.2-0.4,0.3-0.6,0.4l0,0c-0.5,0.2-0.9,0.1-1.3,0h0c-0.4-0.2-0.7-0.5-0.9-0.9l0,0l0,0c-0.2-0.5-0.1-0.9,0-1.3v0
		c0.2-0.4,0.5-0.7,0.9-0.9l0,0l0,0l0,0l0,0c0.5-0.2,0.9-0.1,1.3,0h0c0.4,0.2,0.7,0.5,0.9,0.9l0,0c0.1,0.4,0.1,0.8,0,1.1
		c0.1,0,0.1,0,0.2,0.1c0.6,0.2,1.6,0.2,2.7-0.5c-2.5-2.2-5.3-4-8.8-5.5c-0.6-0.3-1.2-0.5-1.8-0.8c0.4,0.4-0.2,1.1-2.2,2.3
		c-2,1.3-8.7,3.3-10.5,2.6c-1.8-0.7-1.3-1.5-2-0.7c-0.7,0.8-2.9,0.5-4.5-1c-1.6-1.5-0.6-1.6-1.7-2.1c-1.1-0.5-3.6-0.5-3.4-1.4
		c0.2-0.9,2.5-0.4,3.2-0.9c0.7-0.5,1.1-1.8,2.2-2.1c0.6-0.1,1.5-0.3,2.7-0.5l-0.2,0c-1.1-1-1.5-2-1.5-2.9c-0.1-1.3-1-2.9-1.8-3.8
		l0,0c0,0-5.6-2.2-8.7-4c-0.4-0.1-1.1-0.2-2.1-0.3c-0.4,0-1.2,0-2,0.2c-0.7,0.1-1.5,0.3-2.1,0.5c0,0.3,0,0.5-0.1,0.8c0,0,0,0,0,0
		c-0.2,0.4-0.5,0.7-0.9,0.9l0,0c-0.5,0.2-0.9,0.1-1.3,0h0c-0.4-0.2-0.7-0.5-0.9-0.9l0,0l0,0c-0.2-0.5-0.1-0.9,0-1.3v0
		c0.2-0.4,0.5-0.7,0.9-0.9l0,0l0,0l0,0l0,0c0.5-0.2,0.9-0.1,1.3,0h0c0.3,0.1,0.6,0.4,0.8,0.7c0.6-0.1,1.4-0.3,2.2-0.5
		c0.9-0.1,1.7-0.3,2.2-0.2H75c-3.7-2.1-9.3-5.6-9.3-5.6c-0.4,0.2-1.3,0.4-2.8,0.5c-2.3,0.2-9.3-1.1-10.5-2.6
		c-1.2-1.5-0.4-1.9-1.4-1.6c-1,0.4-2.8-0.9-3.5-3s0.2-1.7-0.5-2.6c-0.7-0.9-3-2.1-2.4-2.8c0.6-0.7,2.4,0.9,3.3,0.7
		c0.9-0.1,1.8-1.1,3-0.8c0.5,0.1,1.4,0.5,2.5,0.7c-0.5-1.3-0.4-2.4,0-3.3c0.6-1.4,0.5-3.5,0-4.8c-0.1-0.3,0-0.5,0-0.6l-0.5-1.4
		c-0.5-0.3-1.1-0.6-1.6-0.8c-0.2,0-0.4-0.1-0.5-0.2l0,0l-0.1,0c0,0.1-0.1,0.2-0.2,0.2c-0.3,0.3-0.7,0.5-1.2,0.5l0,0l0,0l0,0l0,0
		c-0.5,0-0.9-0.2-1.2-0.5c-0.3-0.3-0.5-0.7-0.5-1.2l0,0l0,0l0,0l0,0c0-0.5,0.2-0.9,0.5-1.2c0.3-0.3,0.7-0.5,1.2-0.5l0,0l0,0l0,0l0,0
		c0.5,0,0.9,0.2,1.2,0.5c0.3,0.3,0.5,0.7,0.5,1.2l0,0l0,0l0,0l0,0C50.9,148.8,50.9,148.9,50.9,149 M92.1,188.5
		c-0.2,0-0.3,0.1-0.5,0.2C91.8,188.5,91.9,188.5,92.1,188.5 M178.2,128.8c0,0-1.2,4.5-1.1,7.3v0l0,0l0,0c0,0.4,0,0.8,0.1,1.2
		c0,0.4,0.1,0.8,0.1,1.2c0.2,2.1,0.5,4,0.6,4.3c0,0.2,0.3,0.3,0.5,0.2s0.3-0.3,0.2-0.5c-0.1-0.2-0.4-2.1-0.6-4.1
		c0-0.4-0.1-0.8-0.1-1.2s0-0.8-0.1-1.2v0c-0.1-2.7,1.1-7,1.1-7.1c0-0.2,0-0.4-0.3-0.5C178.5,128.5,178.2,128.6,178.2,128.8
		 M182.9,130.7c0,0-1.8,4.3-2,7.1c0,0.2,0.1,0.4,0.3,0.4c0.2,0,0.4-0.1,0.4-0.3c0.2-2.7,2-6.9,2-6.9c0.1-0.2,0-0.4-0.2-0.5
		C183.2,130.4,182.9,130.5,182.9,130.7 M168.3,161.2c0.1-0.1,0.4-0.1,0.5,0c0.1,0.1,0.1,0.4,0,0.5c0,0-3.2,3.3-4.3,5.7l0,0l0,0.1
		l0,0c-0.2,0.3-0.3,0.7-0.5,1.1c-0.1,0.4-0.3,0.7-0.5,1.1c-0.8,1.9-1.4,3.6-1.4,3.9c0,0.2-0.2,0.3-0.4,0.3c-0.2,0-0.3-0.2-0.3-0.4
		c0-0.3,0.6-2.1,1.4-4c0.1-0.4,0.3-0.7,0.5-1.1c0.2-0.4,0.3-0.7,0.5-1.1l0,0l0-0.1l0,0C165.1,164.5,168.3,161.2,168.3,161.2
		 M171.6,166.2c0,0-3.7,2.8-5.3,5.2c-0.1,0.2,0,0.4,0.1,0.5c0.2,0.1,0.4,0.1,0.5-0.1c1.5-2.2,5.1-5,5.1-5c0.1-0.1,0.2-0.4,0-0.5
		C172,166.1,171.8,166.1,171.6,166.2 M110.3,198.8c-0.1,0.2-0.1,0.5,0,0.7l0,0l0,0c0.1,0.2,0.3,0.4,0.5,0.5l0,0
		c0.2,0.1,0.5,0.1,0.7,0l0,0l0,0c0.2-0.1,0.4-0.2,0.5-0.4l0,0l0,0l0,0l0,0c0,0,0,0,0-0.1l0,0c0.1-0.2,0.1-0.5,0-0.7l0,0
		c-0.1-0.2-0.3-0.4-0.5-0.5l0,0c-0.2-0.1-0.5-0.1-0.7,0l0,0l0,0C110.6,198.4,110.4,198.6,110.3,198.8L110.3,198.8z M51,139.1
		L51,139.1L51,139.1L51,139.1L51,139.1L51,139.1z M55.5,153.2C55.5,153.2,55.5,153.2,55.5,153.2C55.5,153.2,55.5,153.2,55.5,153.2
		 M56.2,153.6c0,0,0.1,0,0.1,0C56.3,153.6,56.2,153.6,56.2,153.6 M49.2,147.7L49.2,147.7L49.2,147.7L49.2,147.7L49.2,147.7
		c-0.3,0-0.5,0.1-0.7,0.3c-0.2,0.2-0.3,0.4-0.3,0.7l0,0l0,0l0,0l0,0c0,0.3,0.1,0.5,0.3,0.7c0.2,0.2,0.4,0.3,0.7,0.3l0,0l0,0l0,0l0,0
		c0.3,0,0.5-0.1,0.7-0.3c0.1-0.1,0.1-0.2,0.2-0.3l0,0l0,0l0,0l0,0l0,0l0,0l0,0c0-0.1,0.1-0.2,0.1-0.4l0,0l0,0l0,0l0,0
		c0-0.3-0.1-0.5-0.3-0.7C49.7,147.8,49.5,147.7,49.2,147.7 M50.7,166.6c0,0,1.5-0.4,3.4-0.3c1.6,0,2.2,0.4,3.2,1.1l0.3,0.2l0,0l0,0
		c0,0,0.1,0.1,0.2,0.1c-1.7,0.5-3.5,0.1-3.5,0.1c-0.2,0-0.4,0.1-0.5,0.3s0.1,0.4,0.3,0.5c0,0,2.5,0.6,4.6-0.4
		c0.4,0.2,0.7,0.3,1.1,0.5c0.5,0.2,1.1,0.4,1.5,0.7c1,0.6,2.3,1.7,2.3,1.7c0.1,0.1,0.4,0.1,0.5,0c0.1-0.1,0.1-0.4,0-0.5
		c0,0-1.4-1.1-2.4-1.8c-0.3-0.2-0.6-0.3-0.9-0.5c-1.1-2.8-4.2-4.4-4.3-4.4c-0.2-0.1-0.4,0-0.5,0.2s0,0.4,0.1,0.5
		c0,0,2.4,1.2,3.6,3.4c-0.3-0.1-0.5-0.2-0.9-0.4c0,0,0,0-0.1,0c-0.2-0.1-0.5-0.3-0.7-0.4l-0.3-0.2c-0.7-0.5-1.2-0.8-2-1
		c-1.9-2.4-5.2-3.1-5.3-3.1c-0.2,0-0.4,0.1-0.5,0.3s0.1,0.4,0.3,0.5c0,0,2.5,0.5,4.3,2.2c-0.1,0-0.3,0-0.5,0c-2-0.1-3.6,0.3-3.6,0.3
		c-0.2,0-0.3,0.2-0.3,0.5C50.3,166.5,50.5,166.6,50.7,166.6 M63.5,156.3c0,0,1,1.2,1.8,2.9c0.7,1.5,0.6,2.1,0.5,3.3l0,0.4l0,0l0,0
		c0,0,0,0.1,0,0.2c-1.3-1.3-1.7-3.1-1.7-3.1c0-0.2-0.2-0.3-0.5-0.3c-0.2,0-0.3,0.2-0.3,0.5c0,0,0.3,1.5,1.3,2.8
		c-0.4-0.3-0.9-0.6-1.4-1c-1.2-0.8-2.5-1.6-3.3-2.3l0,0l0,0l0,0c-2-1.6-3.2-3.2-3.2-3.2c-0.1-0.2-0.4-0.2-0.5-0.1
		c-0.2,0.1-0.2,0.4-0.1,0.5c0,0,1.3,1.7,3.4,3.3l0,0l0,0l0,0c0.9,0.7,2.2,1.6,3.4,2.3c1.4,0.9,2.7,1.7,2.8,2c0,0,0,0.1,0.1,0.1
		c0,0.2,0,0.3,0,0.5c0,0.6,0.1,1.1,0,1.6c-0.1,1.1-0.5,2.9-0.5,2.9c0,0.2,0.1,0.4,0.3,0.5s0.4-0.1,0.5-0.3c0,0,0.4-1.8,0.5-3
		c0-0.3,0-0.6,0-1c2-2.3,2.1-5.8,2.1-5.8c0-0.2-0.1-0.4-0.4-0.4c-0.2,0-0.4,0.1-0.4,0.4c0,0,0,2.7-1.4,4.7c0-0.3,0-0.6,0-0.9
		c0,0,0-0.1,0-0.1c0-0.3,0-0.5,0-0.8l0,0l0-0.4c0.1-0.8,0.2-1.4,0-2.2c1.3-2.7,0.5-6.1,0.5-6.1c0-0.2-0.2-0.3-0.5-0.3
		c-0.2,0-0.3,0.2-0.3,0.5c0,0,0.6,2.5-0.1,4.8c0-0.1-0.1-0.3-0.2-0.4c-0.8-1.8-1.9-3.1-1.9-3.1c-0.1-0.1-0.4-0.2-0.5,0
		C63.4,155.9,63.4,156.1,63.5,156.3 M54.6,140.9L54.6,140.9L54.6,140.9L54.6,140.9L54.6,140.9c-0.3,0-0.5,0.1-0.7,0.3
		s-0.3,0.4-0.3,0.7l0,0l0,0l0,0l0,0c0,0.2,0.1,0.4,0.2,0.5l0,0l0,0l0,0l0,0c0,0,0,0,0.1,0.1c0.2,0.2,0.4,0.3,0.7,0.3l0,0l0,0l0,0
		l0,0c0.3,0,0.5-0.1,0.7-0.3c0.2-0.2,0.3-0.4,0.3-0.7l0,0l0,0l0,0l0,0c0-0.3-0.1-0.5-0.3-0.7C55.1,141,54.9,140.9,54.6,140.9
		 M46.6,140.6L46.6,140.6L46.6,140.6c0.1-0.2,0.2-0.4,0.2-0.5l0,0l0,0l0,0l0,0c0-0.3-0.1-0.5-0.3-0.7c-0.2-0.2-0.4-0.3-0.7-0.3l0,0
		l0,0l0,0l0,0c-0.3,0-0.5,0.1-0.7,0.3s-0.3,0.4-0.3,0.7l0,0l0,0c0,0.3,0.1,0.5,0.3,0.7c0.2,0.2,0.4,0.3,0.7,0.3l0,0l0,0
		c0.3,0,0.5-0.1,0.7-0.3C46.5,140.7,46.5,140.7,46.6,140.6 M57.7,128.3c0.1-0.2,0.3-0.3,0.5-0.2c0.2,0.1,0.3,0.3,0.2,0.5
		c0,0-1.5,3.2-4.3,4.4c-0.1,0.3-0.3,0.6-0.4,0.9c-0.6,1-1.6,2.5-1.6,2.5c-0.1,0.2-0.4,0.2-0.5,0.1c-0.2-0.1-0.2-0.4-0.1-0.5
		c0,0,1.1-1.5,1.6-2.4c0.3-0.4,0.4-1,0.6-1.5c0-0.1,0.1-0.3,0.2-0.5c0,0,0-0.1,0-0.1c0-0.3-0.9-1.6-1.8-3c-0.8-1.2-1.6-2.5-2.1-3.5
		l0,0l0,0c-1.2-2.3-1.7-4.4-1.7-4.4c0-0.2,0-0.4,0.3-0.5c0.2,0,0.4,0,0.5,0.3c0,0,0.5,2,1.7,4.2l0,0l0,0c0.5,1,1.4,2.3,2.1,3.4
		c0.3,0.5,0.6,1,0.9,1.4c-0.4-1.6,0-3.1,0-3.1c0-0.2,0.2-0.3,0.5-0.3c0.2,0,0.3,0.2,0.3,0.5c0,0-0.4,1.9,0.3,3.5c0,0,0-0.1,0.1-0.2
		l0,0l0.2-0.4l0,0c0.6-1,0.9-1.6,0.9-3.2c0-1.9-0.5-3.4-0.5-3.4c0-0.2,0-0.4,0.3-0.5c0.2,0,0.4,0,0.5,0.3c0,0,0.5,1.6,0.5,3.6
		c0,0.1,0,0.3,0,0.5c1.6-1.8,2-4.3,2-4.3c0-0.2,0.2-0.3,0.4-0.3c0.2,0,0.3,0.2,0.3,0.4c0,0-0.5,3.4-2.8,5.4c-0.1,0.8-0.5,1.3-0.9,2
		v0l-0.2,0.3c-0.1,0.2-0.3,0.5-0.4,0.7c0,0,0,0,0,0.1c-0.1,0.3-0.2,0.6-0.3,0.9C56.6,130.7,57.7,128.3,57.7,128.3 M80.2,172.3
		L80.2,172.3L80.2,172.3L80.2,172.3L80.2,172.3c-0.3,0-0.5,0.1-0.7,0.3c-0.2,0.2-0.3,0.4-0.3,0.7l0,0l0,0l0,0l0,0
		c0,0.2,0.1,0.4,0.2,0.6l0,0l0,0c0,0,0,0,0.1,0.1c0.2,0.2,0.4,0.3,0.7,0.3l0,0l0,0l0,0l0,0c0.3,0,0.5-0.1,0.7-0.3
		c0.2-0.2,0.3-0.4,0.3-0.7l0,0l0,0l0,0l0,0c0-0.3-0.1-0.5-0.3-0.7C80.7,172.4,80.5,172.3,80.2,172.3 M68.1,178.7
		c-0.1,0.2-0.1,0.5,0,0.7l0,0l0,0c0.1,0.2,0.3,0.4,0.5,0.5l0,0c0.2,0.1,0.5,0.1,0.7,0l0,0l0,0c0.2-0.1,0.4-0.3,0.5-0.5l0,0
		c0.1-0.2,0.1-0.5,0-0.7l0,0c-0.1-0.2-0.3-0.4-0.5-0.5l0,0c-0.2-0.1-0.5-0.1-0.7,0l0,0C68.4,178.3,68.2,178.4,68.1,178.7L68.1,178.7
		z M124.2,209.4c-4.4,0.2-9.1,0.1-13.8-0.2c2.2-3.2,4.4-6,6.9-8.5C119.8,203.2,122,206.1,124.2,209.4 M109.4,209.1l-0.7,0
		C109,209.1,109.2,209.1,109.4,209.1 M137.4,226.9c0.3,0,0.5-0.1,0.8-0.1C138,226.8,137.7,226.9,137.4,226.9 M15.5,168l1.6,2.3
		l1-0.7l-0.5-0.6l4.3-3.1l2.2-1.7l0.1,0.1l-2.9,2.7l-3.8,3.9l0.2,0.4l5.2-2.6l3.2-1.7l0.1,0.1l-2.3,1.6l-4.3,3.1l-0.5-0.6l-1,0.7
		l1.7,2.6l1-0.7l-0.5-0.6l6.4-4.6l0.5,0.6l1-0.7l-1.8-2.6l-1.8,0.9c-0.4,0.2-0.9,0.5-1.5,0.8l-1.5,0.8v0l1.5-1.3
		c0.4-0.4,0.7-0.6,0.9-0.9l1.6-1.6l-1.7-2.6l-1,0.7l0.5,0.6L17,168l-0.5-0.6L15.5,168z M27.8,169.6l0.5,0.6l-5.2,4.8
		c-0.5,0.5-0.7,1-0.8,1.6s0.2,1.1,0.6,1.6c0.4,0.5,0.9,0.7,1.5,0.7c0.6,0,1.2-0.3,1.9-0.9l4.8-4.5l0.5,0.6l0.9-0.9l-1.7-2l-0.9,0.9
		l0.4,0.4l-4.9,4.5c-0.4,0.3-0.7,0.5-0.9,0.6c-0.2,0-0.5,0-0.7-0.3c-0.2-0.2-0.3-0.5-0.2-0.7c0-0.2,0.3-0.5,0.6-0.9l4.9-4.5l0.4,0.4
		l0.9-0.9l-1.9-2.1L27.8,169.6z M26.8,182.1l2.1,2.1l0.9-0.9l-0.5-0.5l2.4-2.5l4.1-2.1l0.5,0.5l0.9-0.9l-1.9-1.9l-0.9,0.9l0.5,0.5
		l-2.6,1.4l0,0l1.2-2.7l0.5,0.5l0.9-0.9l-2-2l-0.9,0.9l0.5,0.5l-1.9,4.5l-2.3,2.4l-0.5-0.5L26.8,182.1z M32.1,187.4l2.1,1.7l0.8-1
		l-0.5-0.5l2.1-2.8l1.8-2.6l0,0l-1,2.2c-0.3,0.6-0.5,1.1-0.6,1.6l-1.4,4l0.9,0.7l5.6-7.3l0.5,0.5l0.8-1l-2.1-1.7l-0.8,1l0.5,0.5
		l-1.5,1.9l-1.8,2.6l0,0l1.3-2.9l1.4-3.8l-1.8-1.5l-0.8,1l0.5,0.5l-4.8,6.3l-0.5-0.5L32.1,187.4z M44.7,190.7
		c1.1-1.5,1.6-2.7,1.9-3.7c0.2-1,0-1.7-0.6-2.2c-0.4-0.3-0.9-0.4-1.4-0.3c-0.5,0.1-1.1,0.5-1.7,1c-0.6,0.5-1.3,1.3-2,2.3
		c-1.1,1.5-1.6,2.7-1.8,3.7c-0.2,1,0,1.7,0.7,2.2C41,194.6,42.6,193.6,44.7,190.7 M42.1,188.9c-0.9,1.2-1.4,2.1-1.6,2.6
		c-0.2,0.5-0.2,0.9,0,1.1c0.2,0.2,0.5,0.1,1-0.3c0.4-0.4,1.1-1.2,1.9-2.4c1-1.3,1.6-2.3,1.8-2.8c0.2-0.5,0.2-0.9,0-1.1
		c-0.3-0.2-0.6-0.1-1.1,0.4C43.6,186.8,43,187.6,42.1,188.9 M44.1,195.2l-0.6-0.5l-0.7,1.1l1.9,1.3c0.8,0.5,1.6,0.7,2.3,0.6
		s1.3-0.6,1.8-1.4c0.4-0.6,0.5-1.1,0.5-1.7c0-0.6-0.2-1.1-0.6-1.5v0c0.5,0.2,0.9,0.3,1.3,0.1c0.5-0.2,0.8-0.5,1.1-1.1
		c0.5-0.7,0.6-1.4,0.5-2.1c-0.1-0.7-0.6-1.3-1.3-1.7l-1.9-1.3l-0.7,1.1l0.6,0.5L44.1,195.2z M49.5,189.3l-1.6,2.6
		c0.2,0.2,0.5,0.3,0.6,0.3c0.2,0,0.4,0,0.6-0.1c0.2-0.1,0.5-0.4,0.7-0.8c0.3-0.5,0.5-0.9,0.5-1.2C50.2,189.9,50,189.6,49.5,189.3
		 M47.2,193l-1.9,3c0.5,0.3,0.9,0.4,1.2,0.3c0.4-0.1,0.7-0.4,1-0.9c0.3-0.5,0.5-0.9,0.5-1.1c0-0.3,0-0.5-0.2-0.7
		C47.6,193.3,47.5,193.1,47.2,193 M48.2,199.4l4.1,2.4l2.2-4l-1.1-0.6l-1.6,2.9l-1.1-0.6l3.9-6.9l0.7,0.4l0.6-1.1l-2.6-1.5l-0.6,1.1
		l0.6,0.4l-3.9,6.9l-0.6-0.4L48.2,199.4z M53,202.4l4.1,2.4l1.5-2.8l-1.1-0.6l-0.9,1.7l-1.1-0.6l1.6-3.1l0.9,0.5l0.6-1.1l-0.9-0.5
		l1.5-2.8l1.1,0.6l-0.9,1.6l1.1,0.6l1.5-2.7l-4.1-2.4l-0.6,1.1l0.6,0.4l-3.8,7l-0.6-0.4L53,202.4z M61,206.8l2.6,1.3l0.5-1.1
		l-0.6-0.3l1.5-3.2l3.3-3.3l0.6,0.3l0.5-1.1l-2.4-1.2l-0.5,1.1l0.6,0.3l-2,2.1l0,0l0.4-3l0.6,0.3l0.5-1.1l-2.5-1.2l-0.6,1l0.6,0.3
		l-0.5,4.9l-1.5,3.1l-0.6-0.3L61,206.8z M73.9,217.3l2.8,1l0.4-1.3l-0.8-0.3l1.8-5.3l0.9-2.8l0.1,0l-0.8,4.2l-0.9,5.8l0.5,0.1
		l2.9-5.5l1.7-3.4l0.1,0l-1.1,2.8l-1.8,5.3l-0.8-0.3l-0.4,1.3l3,1.1l0.4-1.3l-0.8-0.3l2.7-8l0.8,0.3l0.4-1.3l-3.1-1.1l-1,1.9
		c-0.2,0.5-0.5,1-0.8,1.6l-0.8,1.6h0l0.5-2c0.1-0.5,0.2-1,0.3-1.3l0.4-2.4l-3.1-1.1L77,208l0.8,0.3l-2.7,8l-0.8-0.3L73.9,217.3z
		 M84.7,210.8l0.8,0.2l-1.6,7.4c-0.1,0.7-0.1,1.3,0.2,1.8c0.3,0.5,0.8,0.9,1.5,1.1c0.6,0.1,1.2,0,1.7-0.3c0.5-0.4,0.9-1,1.1-2
		l1.6-6.9l0.8,0.2l0.3-1.3l-2.6-0.6l-0.3,1.3l0.5,0.1l-1.6,6.9c-0.1,0.5-0.3,0.9-0.5,1.1c-0.2,0.2-0.4,0.2-0.7,0.2
		c-0.3-0.1-0.5-0.2-0.6-0.5s0-0.6,0-1.1l1.6-6.9l0.5,0.1l0.3-1.3l-2.8-0.7L84.7,210.8z M91.3,222.4l3,0.5l0.2-1.3l-0.8-0.1l0.6-3.7
		l2.4-4.4l0.7,0.1l0.2-1.3l-2.7-0.5l-0.2,1.3l0.7,0.1L94,216h0l-0.5-3.1l0.7,0.1l0.2-1.3l-2.9-0.5l-0.2,1.3l0.7,0.1l0.9,5.1
		l-0.6,3.5l-0.7-0.1L91.3,222.4z M100.1,223.9l4.9,0.5l0.5-4.8l-1.3-0.1l-0.4,3.5l-1.3-0.1l0.9-8.4l0.8,0.1l0.1-1.3l-3.1-0.3
		l-0.1,1.3l0.8,0.1l-0.9,8.4l-0.8-0.1L100.1,223.9z M106.2,224.5l5,0.3l0.2-3.4l-1.3-0.1l-0.1,2.1l-1.4-0.1l0.2-3.7l1.1,0l0.1-1.3
		l-1.1,0l0.2-3.4l1.4,0.1l-0.1,1.9l1.3,0.1l0.2-3.2l-5-0.3l-0.1,1.3l0.8,0l-0.4,8.5l-0.8,0L106.2,224.5z M115.1,220.9h1.3l0.3,2.5
		h-0.7v1.3h2.9v-1.3h-0.7l-1.2-8.5h0.7v-1.3h-4v1.3h0.7l-1.2,8.5h-0.7v1.3h2.9v-1.3h-0.7L115.1,220.9z M115.2,219.5h1.1l-0.5-5h-0.2
		L115.2,219.5z M120,224.7l4.9-0.2l-0.2-4.8l-1.3,0l0.1,3.5l-1.3,0l-0.3-8.5l0.8,0l0-1.3l-3.1,0.1l0,1.3l0.8,0l0.3,8.5l-0.8,0
		L120,224.7z M132.7,219.9c0.1,1,0.1,1.6,0,2.1c-0.1,0.4-0.3,0.6-0.6,0.7c-0.4,0-0.6-0.2-0.8-0.8c-0.2-0.5-0.4-1.7-0.5-3.5
		c-0.1-1.3-0.2-2.2-0.2-2.8c0-0.6,0-1,0.1-1.1c0.1-0.2,0.2-0.3,0.5-0.3c0.3,0,0.5,0.1,0.8,0.5c0.2,0.4,0.4,1,0.4,1.7l1.3-0.1
		l-0.4-3.6l-1.3,0.1l0,0.5h0c-0.3-0.5-0.7-0.6-1.2-0.6c-1.5,0.1-2,2.2-1.6,6.1c0.2,1.9,0.5,3.3,1.1,4.2s1.2,1.3,2.1,1.2
		c0.7-0.1,1.2-0.5,1.6-1.2c0.3-0.7,0.5-1.6,0.3-2.8L132.7,219.9z M135.9,223.5l3.2-0.5l-0.2-1.3l-0.8,0.1l-1.1-8.4l0.8-0.1l-0.2-1.3
		l-3.2,0.5l0.2,1.3l0.8-0.1l1.1,8.4l-0.8,0.1L135.9,223.5z M138.6,213.1l0.8-0.1l1.3,7.5c0.1,0.7,0.4,1.2,0.9,1.6
		c0.5,0.4,1.1,0.5,1.8,0.4c0.6-0.1,1.1-0.5,1.5-1c0.4-0.5,0.5-1.3,0.3-2.3l-1.2-7l0.8-0.1l-0.2-1.3l-2.7,0.5l0.2,1.3l0.5-0.1l1.2,7
		c0.1,0.5,0.1,0.9,0,1.1c-0.1,0.2-0.3,0.4-0.6,0.5c-0.3,0-0.5,0-0.7-0.2s-0.3-0.5-0.4-1.1l-1.2-7l0.5-0.1l-0.2-1.3l-2.9,0.5
		L138.6,213.1z M147.7,221.3l2-0.5c1.1-0.3,1.9-0.9,2.3-1.9c0.4-1,0.3-2.4-0.1-4.3c-0.4-1.9-1-3.2-1.7-3.9c-0.7-0.8-1.7-1-2.9-0.7
		l-1.9,0.5l0.3,1.3l0.8-0.2l1.8,8.2l-0.8,0.2L147.7,221.3z M147.8,211.2l1.8,8.2c0.5-0.1,0.9-0.5,0.9-1.1c0.1-0.6,0-1.6-0.4-3.1
		c-0.3-1.1-0.5-2-0.7-2.6c-0.2-0.6-0.5-1-0.7-1.2C148.5,211.2,148.2,211.1,147.8,211.2 M155.3,215.5l1.2-0.4l0.9,2.4l-0.7,0.2
		l0.3,1.3l2.8-0.8l-0.3-1.3l-0.6,0.2l-3.3-7.9l0.7-0.2l-0.3-1.3l-3.9,1.1l0.3,1.3l0.7-0.2l1,8.5l-0.6,0.2l0.3,1.3l2.8-0.8l-0.3-1.3
		l-0.7,0.2L155.3,215.5z M155.1,214.1l1.1-0.3l-1.7-4.7l-0.2,0L155.1,214.1z M161.2,217.8l1.9-0.6c1.1-0.4,1.9-1.1,2.1-2.1
		c0.3-1.1,0.2-2.5-0.4-4.3c-0.5-1.8-1.2-3.1-2-3.8c-0.8-0.7-1.8-0.9-3-0.5l-1.9,0.6l0.4,1.3l0.7-0.2l2.4,8.1l-0.8,0.2L161.2,217.8z
		 M160.6,207.7l2.4,8.1c0.5-0.2,0.8-0.6,0.9-1.2c0-0.6-0.1-1.6-0.5-3.1c-0.3-1.1-0.6-2-0.9-2.5c-0.3-0.6-0.5-1-0.8-1.1
		C161.3,207.7,161,207.6,160.6,207.7 M195.2,180l1.2-0.2v-1.9h-1L195.2,180z M177.1,206.6l1.7-0.9c1-0.5,1.6-1.3,1.7-2.3
		c0.1-1-0.2-2.3-1-3.9c-0.8-1.6-1.6-2.7-2.5-3.2c-0.9-0.5-1.8-0.5-2.9,0l-1.6,0.9l0.5,1.1l0.7-0.4l3.5,7.1l-0.7,0.4L177.1,206.6z
		 M175,197.2l3.5,7.2c0.5-0.3,0.7-0.7,0.6-1.3c0-0.6-0.4-1.5-1-2.8c-0.5-1-0.9-1.7-1.2-2.2c-0.3-0.5-0.6-0.8-1-1
		C175.6,197,175.3,197,175,197.2 M183.4,203.1l4.1-2.5l-1.6-2.8l-1.1,0.6l1,1.7l-1.1,0.7l-1.8-3l0.9-0.5l-0.6-1.1l-0.9,0.5l-1.6-2.7
		l1.1-0.7l0.9,1.6l1.1-0.6l-1.6-2.7l-4.1,2.5l0.6,1.1l0.6-0.4l4,6.9l-0.6,0.4L183.4,203.1z M193.5,196.5l2.2-1.7l-0.7-1l-0.6,0.5
		l-3.1-4.3l-1.7-2.2l0.1-0.1l2.8,2.9l3.9,3.7l0.4-0.3l-2.7-5.3l-1.7-3.2l0.1-0.1l1.6,2.3l3.1,4.3l-0.6,0.5l0.7,1l2.4-1.9l-0.7-1
		l-0.6,0.5l-4.7-6.4l0.6-0.5l-0.7-1l-2.5,1.9l0.9,1.8c0.2,0.4,0.5,0.9,0.8,1.5l0.8,1.5l0,0l-1.3-1.5c-0.4-0.4-0.6-0.7-0.9-0.9
		l-1.6-1.6l-2.5,1.9l0.7,1l0.6-0.5l4.7,6.4l-0.6,0.5L193.5,196.5z M201,190.5l3.6-3.2l-2.1-2.5l-1,0.8l1.2,1.5l-1,0.9l-2.2-2.7
		l0.8-0.7l-0.8-1l-0.8,0.7l-2.1-2.4l1-0.9l1.1,1.4l0.9-0.8l-2-2.3l-3.6,3.2l0.8,1l0.6-0.5l5.1,6.1l-0.6,0.5L201,190.5z M204.6,180.8
		c0.2-0.2,0.3-0.3,0.4-0.5l4.2,2.6l1.2-1.2l-0.9-0.9l-0.5,0.5l-3.5-2.1c0.2-1,0-1.9-0.8-2.7c-0.6-0.6-1.2-1-2-1
		c-0.7,0-1.4,0.3-2,0.9l-1.8,1.8l0.9,0.9l0.6-0.6l5.4,5.8l-0.6,0.6l0.9,0.9l2.2-2.2l-0.9-0.9l-0.5,0.5L204.6,180.8z M201.5,177.6
		l2.1,2.3c0.4-0.4,0.6-0.8,0.6-1.1s-0.2-0.7-0.6-1.1s-0.8-0.6-1.1-0.6C202.3,177,201.9,177.2,201.5,177.6 M211.5,180.5l2.1-2.3
		l-0.9-0.9l-0.5,0.6l-5.7-5.5l0.5-0.6l-0.9-0.9l-2.1,2.3l0.9,0.9l0.5-0.6l5.7,5.5l-0.5,0.6L211.5,180.5z M214.8,176.7l1.2-1.5
		c0.7-0.9,1-1.8,0.6-2.8c-0.3-1-1.1-2.1-2.4-3.2c-1.4-1.2-2.5-1.8-3.5-2c-1-0.1-1.9,0.3-2.6,1.2l-1.2,1.5l1,0.8l0.5-0.6l5.9,5.2
		l-0.5,0.6L214.8,176.7z M209.4,168.9l5.9,5.2c0.3-0.4,0.4-0.9,0.1-1.4c-0.3-0.5-1-1.2-2-2.1c-0.8-0.7-1.5-1.2-2-1.6
		c-0.5-0.3-0.9-0.5-1.2-0.5C209.9,168.5,209.6,168.7,209.4,168.9 M217.5,167.4l0.7-1l2,1.2l-0.4,0.5l1,0.7l1.6-2.3l-1-0.8l-0.4,0.5
		l-6.9-3.8l0.4-0.6l-1-0.7l-2.2,3.2l1,0.7l0.4-0.6l5.6,5.7l-0.4,0.6l1,0.7l1.6-2.3l-1-0.7l-0.4,0.5L217.5,167.4z M216.5,166.6
		l0.6-0.9l-3.9-2.4l-0.1,0.1L216.5,166.6z M90,189.1c-0.3,0-0.5,0.1-0.7,0.2C89.5,189.2,89.7,189.1,90,189.1 M96.9,177.7
		c0,0,1.9,1.8,2.4,4.2c-0.1-0.1-0.2-0.2-0.4-0.3c-1.6-1.1-3.2-1.6-3.2-1.6c-0.2,0-0.4,0-0.5,0.2c0,0.2,0,0.4,0.2,0.5
		c0,0,1.5,0.5,3,1.6c1.4,0.9,1.6,1.5,2.1,2.6l0.2,0.4v0l0.1,0.1c-1.7-0.5-3-1.8-3.1-1.8c-0.1-0.1-0.4-0.1-0.5,0
		c-0.1,0.1-0.1,0.4,0,0.5c0,0,1.1,1.1,2.6,1.7c-0.5,0-1.1,0-1.7-0.1c-1.4,0-2.9-0.1-4.1-0.2l0,0h0c-2.5-0.3-4.4-1.1-4.4-1.1
		c-0.2-0.1-0.4,0-0.5,0.2c-0.1,0.2,0,0.4,0.2,0.5c0,0,2,0.8,4.6,1.1h0l0,0c1.1,0.1,2.7,0.2,4.1,0.2c1.7,0,3.2,0.1,3.5,0.3
		c0,0,0.1,0,0.1,0c0.1,0.1,0.2,0.3,0.3,0.4c0.4,0.5,0.7,0.9,0.9,1.4c0.5,1,1.1,2.7,1.1,2.7c0.1,0.2,0.3,0.3,0.5,0.2
		c0.2-0.1,0.3-0.3,0.2-0.5c0,0-0.6-1.7-1.1-2.8c-0.1-0.3-0.3-0.6-0.5-0.9c0.5-3-1.2-6-1.2-6c-0.1-0.2-0.3-0.2-0.5-0.1
		c-0.2,0.1-0.2,0.3-0.1,0.5c0,0,1.3,2.3,1.2,4.8c-0.2-0.2-0.4-0.5-0.5-0.8c0,0,0,0,0-0.1c-0.1-0.2-0.3-0.5-0.4-0.7l0,0l-0.2-0.4
		c-0.3-0.8-0.6-1.3-1.1-1.9c-0.3-3-2.7-5.4-2.7-5.4c-0.1-0.1-0.4-0.1-0.5,0C96.7,177.3,96.7,177.5,96.9,177.7 M87.4,192.2
		c0,0,2.5-0.6,4.8,0.2c-0.1,0-0.3,0.1-0.4,0.2c-1.8,0.8-3.1,1.8-3.1,1.8c-0.2,0.1-0.2,0.4-0.1,0.5c0.1,0.2,0.4,0.2,0.5,0.1
		c0,0,1.2-1,3-1.7c1.5-0.7,2.1-0.6,3.3-0.4l0,0l0.4,0l0,0c0,0,0.1,0,0.2,0c-1.3,1.2-3.2,1.6-3.2,1.6c-0.2,0-0.3,0.2-0.3,0.5
		c0,0.2,0.2,0.3,0.5,0.3c0,0,2.5-0.5,4-2.3c0.4,0,0.8,0,1.2,0c0.6,0,1.1-0.1,1.6,0c1.1,0.1,2.9,0.5,2.9,0.5c0.2,0,0.4-0.1,0.5-0.3
		c0-0.2-0.1-0.4-0.3-0.5c0,0-1.8-0.4-2.9-0.6c-0.3,0-0.7,0-1,0c-2.2-2.1-5.7-2.2-5.8-2.2c-0.2,0-0.4,0.1-0.4,0.4
		c0,0.2,0.1,0.4,0.4,0.4c0,0,2.7,0.1,4.7,1.5c-0.3,0-0.6,0-0.9,0c0,0-0.1,0-0.1,0c-0.3,0-0.5,0-0.8,0l0,0l-0.4,0l0,0
		c-0.8-0.1-1.4-0.2-2.2,0c-2.7-1.4-6.1-0.5-6.1-0.5c-0.2,0-0.3,0.2-0.3,0.5C87,192.2,87.2,192.2,87.4,192.2 M142.9,188.6
		c0,0-4.6,1-7,2.4c-0.2,0.1-0.2,0.3-0.1,0.5c0.1,0.2,0.3,0.2,0.5,0.1c2.3-1.4,6.8-2.3,6.8-2.3c0.2,0,0.3-0.2,0.3-0.5
		C143.3,188.7,143.1,188.6,142.9,188.6 M141.8,183.6c0,0-4.4,1.6-6.6,3.4l0,0l0,0l0,0c-0.3,0.2-0.6,0.5-0.9,0.8
		c-0.3,0.2-0.6,0.5-0.9,0.8c-1.6,1.4-2.9,2.8-3.1,3c-0.1,0.2-0.1,0.4,0.1,0.5c0.2,0.1,0.4,0.1,0.5-0.1c0.1-0.2,1.5-1.6,3-2.9
		c0.3-0.3,0.6-0.5,0.9-0.8c0.3-0.3,0.6-0.5,0.9-0.8l0,0l0,0c2.1-1.7,6.4-3.2,6.4-3.2c0.2-0.1,0.3-0.3,0.2-0.5
		C142.2,183.6,142,183.5,141.8,183.6 M69.9,28.2l4.4,4.8c0-0.5,0.5-0.9,1-0.9c0.5,0,1,0.4,1,1c0,0.5-0.4,1-0.9,1l4.6,4.9
		c0,0,2.1,2.6,5.4,1.5c3.3-1.1,3.6-2.7,3.6-2.7s2.4,1.6,4.4,1.1c2.1-0.5,3.4-3.8,3.8-4.2c0.4-0.4,2.3,2.6,4.6,2.2
		c2.2-0.4,4-3.6,4.3-4c0.4-0.4,2.6,2.9,5.2,2.9h0c-0.6,0-1.3,0-2,0.1C98,36.4,82,42.3,82,42.3c-1.8,1.1,1.9,3.1,1.9,3.1
		s0.5,0.8,1.1,1.8l2.5-1.1c0.1,0,0.2,0,0.3,0.1l0.9,2.1c0,0.1,0,0.2-0.1,0.3l-2.3,1c0.5,0.9,0.9,1.7,1.1,2.1
		c0.5,1.2,0.8,2.5,3.8,4.3c3,1.7,20.8,3,26.7,3.2c5.9,0.2,23.8-2,26.5-2.8c2.7-0.9,3.9-3.9,3.9-3.9s0.5-1.1,1-2.6l-2.8-1.3
		c-0.1,0-0.1-0.2-0.1-0.3l0.9-2.1c0-0.1,0.2-0.1,0.3-0.1l2.5,1.1l-0.7,2.6c0.3-0.8,0.5-1.7,0.7-2.7c0.7-2.9,2.7-2.7,3.8-3.9
		c1.1-1.2-1.9-1.9-1.9-1.9s-1-0.3-2.5-0.8l0,0c2.5,0.5,3.4,0,6.4-3.1c1-1,2.2-2.3,3.5-3.5c0,0-0.1,0-0.1,0c-0.5,0-1-0.4-1-1
		c0-0.5,0.4-1,1-1s1,0.4,1,1c0,0,0,0.1,0,0.1c2.3-2.2,4.4-4.3,4.4-4.3s1.5-1.6,3-1.6c1.6,0,3-0.5,1.9-1.4c-1.1-0.9-3.3-1.2-3.9-0.9
		c-0.6,0.3-1,1.5-3.1,0.3s-3.7-0.2-4.2,0.5c-0.6,0.7-2.2,1-3.3,1.2c-1.1,0.2-1.1,1.1-1,1.7s1,1,1,1s-1.6,0.1-1.6,1.6
		c0,1.5,0.9,1.1,0.9,1.1s-1.5,0.3-1.3,1.3c0.1,1,1.2,0.9,1.2,0.9s-0.6,3.1-3.2,3.4c-2.5,0.3-3.5-2.6-3.4-3.3c0-0.1,0-0.2,0-0.3
		c0.2,0,0.3,0.1,0.5,0.1c1,0,1.8-0.8,1.8-1.8c0-1-0.8-1.8-1.8-1.8c-1,0-1.8,0.8-1.8,1.8c0,0.6,0.3,1.1,0.7,1.4
		c-0.2,0.1-0.4,0.3-0.6,0.6c-1.9,2.5-4.5,1.7-6-0.2c0,0,0,0,0-0.2c0.7,0.1,1.1,0.3,1.3,0c0.3-0.3-0.1-1.2-0.1-1.2s0.9,0.7,1.2,0.6
		c1.8-0.2-0.5-1.9-0.4-2.1c0.2-0.2,2.7,0.9,3.5,0.2c0.7-0.7,0.7-1.5,0.4-2c-0.3-0.5-1.6-0.8-1.6-1.1c0-0.4,2.1-1.1,2.3-1.5
		c0.3-0.4,0.1-1.4-0.7-1.5c-0.8-0.1-1.4-0.3-1.4-0.8s0.5-1.6-0.5-2.1c-0.9-0.5-1.6,0.6-1.9,0.8c-0.2,0.2-0.6-0.2-1.3-0.4
		c-0.7-0.2-1.6,0.3-1.6,1c0,0.7-0.1,1.1-0.5,1c-0.4-0.1-0.4-0.5-1,0c-0.7,0.4,1.3,2.5-0.4,1.3c-0.7-0.5-1-0.6-1.4-0.2s0,1,0.4,1.4
		c0.5,0.4,0.6,0.7-0.1,0.5s-1.2,0.1-1,0.7c0.2,0.5,0.8,0.6,1,0.8c0.2,0.2-0.4,0.4-0.9,0.3c-1.9-0.2-1.1,1.5,0.4,1.2
		c0.6-0.1,1.1,0.1,0.8,0.5c-0.2,0.4-0.2,0.7-0.2,1.1c-0.9,0.4-1.7,0.8-2,0.9c-0.5,0.2-2.3,0.6-3.9-1.1c-1.1-1.1-1.4-2.9-1.5-3.9l0,0
		c1,0,1.8-0.8,1.8-1.8c0-1-0.8-1.8-1.8-1.8c-1,0-1.8,0.8-1.8,1.8c0,0.8,0.5,1.5,1.2,1.7c-0.5,0.6-1.6,1.4-2.2,2
		c-2.4,2.5-6.4,1.4-7.7-1.7c-0.2-0.6,0.6,0.3,1.1-0.4c0.4-0.6-1.1-2.4-0.1-1.4c0.2,0.2,1.6,1.1,1.9,0c0.2-0.8-0.5-1.4-0.9-1.7h0.1h0
		c2.1,0.3,2.9-0.3,3.3-0.7c0.4-0.4,0.5-1.3-0.8-1.8c-0.7-0.3-1.7,0-2.5,0.3l-0.1,0c0.4-0.4,1.1-1,0.9-1.7c-0.3-1.1-1.7-0.2-1.9,0
		c-1.8,1.8,0.4-0.6,0.1-1.5c-0.2-0.6-1.3-0.5-1.7,0.3c-0.3,0.5,0.8-1.8,0.9-2.1c0.2-0.6-0.2-1.6-0.7-1.6s-1-0.2-1-0.9
		c0-0.7-1-0.9-1-0.1c0,0.7-0.4,0.9-1,1c-0.6,0.1-0.7,0.9-0.6,1.5c0,0.4,0.7,1.4,1.1,2.1c-0.5-0.8-1.4-0.9-1.7-0.3
		c-0.6,0.9,2,3.4,0,1.5c-0.2-0.2-1.6-1.1-1.9,0c-0.2,0.7,0.5,1.3,0.9,1.7c-0.7-0.3-1.6-0.5-2.2-0.2c-1.3,0.5-1.2,1.4-0.8,1.8
		s1.2,1,3.1,0.8c-0.4,0.4-1.1,1-0.9,1.7c0.3,1.1,1.7,0.2,1.9,0c1.2-1.1-0.6,0.6,0,1.4c0.9,1.3,2.1-1.1,0.6,0.9
		c-1.1,1.6-2.6,2.5-4.6,2.7c-2,0.1-3.8-2.1-4.5-3.2c-0.1-0.1-0.2-0.3-0.3-0.4c0.7-0.2,1.2-0.9,1.2-1.7c0-1-0.8-1.8-1.8-1.8
		c-1,0-1.8,0.8-1.8,1.8c0,1,0.8,1.8,1.7,1.8c-0.2,0.3-0.3,0.8-0.4,1.5c-0.2,1.6-2.2,3.6-3.4,3.7c-1,0.2-2.6,0.1-3.6-0.7
		c0.1-0.5,0.1-1.1-0.1-1.4c-0.3-0.5,0.2-0.4,0.8-0.3c1.5,0.3,2.2-1.7,0.4-1.5c-0.5,0.1-1.1-0.1-0.9-0.3c0.2-0.2,0.8-0.3,1-0.8
		c0.2-0.5-0.3-0.8-1-0.7c-0.7,0.2-0.5-0.2-0.1-0.5c0.5-0.4,0.8-1,0.4-1.4c-0.4-0.4-0.7-0.2-1.4,0.2c-1.7,1.2,0.3-0.9-0.4-1.3
		c-0.7-0.4-0.7,0-1,0c-0.4,0.1-0.5-0.3-0.5-1c0-0.7-0.9-1.2-1.6-1c-0.7,0.2-1,0.5-1.3,0.4c-0.2-0.2-1-1.3-1.9-0.8
		c-0.9,0.5-0.5,1.6-0.5,2.1c0,0.5-0.6,0.7-1.4,0.8c-0.8,0.1-1,1.1-0.7,1.5c0.3,0.4,2.1,0.6,2.1,1c0,0.4-1.1,1.1-1.4,1.6
		c-0.3,0.5-0.3,1.3,0.4,2c0.7,0.7,2.9-0.7,3.2-0.5c0.3,0.3-1.3,1.2-1.2,2c0.1,0.7,0.8,0.5,1.1,0.4c0.4-0.2,1.6-1.3,1.1-0.8
		c-0.5,0.5-0.5,1.4-0.4,1.6c0.1,0.1,0.6,0,1,0c-0.9,1.7-2.4,2.1-3.6,1.6c-1-0.4-1.9-2.1-2.5-2.5c0.3-0.3,0.5-0.7,0.5-1.2
		c0-1-0.8-1.8-1.8-1.8c-1,0-1.8,0.8-1.8,1.8c0,1,0.8,1.8,1.8,1.8c0.2,0,0.5,0,0.6-0.1c-0.1,0.7-0.2,1.9-1.2,2.9
		c-1.5,1.5-2.9,0.9-3.8,0.3c-0.6-0.5-1.3-1.8-1.6-2.4c0.6,0,0.6-1.2,0.6-1.6c-0.1-0.5,0-0.6,0.4-1.1c0.5-0.6,0-1-0.4-1.5
		c-0.4-0.4-0.2-0.7-0.1-1.2c0.1-0.5,0.1-1.1-0.8-1.7c-0.8-0.6-1.8,0.1-1.8-0.2c0-0.3-0.3-1.1-1-2c-0.7-0.9-2.4-1.1-3.4-1
		c-1,0.1-1.3,0.5-2.7,0.8c-0.5-0.2-0.9-0.4-1.1-0.4c-1.4-0.1-4.3-0.7-5.2,1.4C64.5,27.6,68,26.4,69.9,28.2 M111.5,35.7
		c1.8-0.1,5.1-2.7,5.5-5.5c0,0,2.1,4.9,4.9,5.4c2.8,0.5,6.4-2.9,6.4-2.9s1.7,3.4,3.9,3.9c2.2,0.5,4.5-1.2,4.8-1.8
		c0.4-0.6,1,2.4,3.1,3.1c2.1,0.7,4.8,0.4,5.3-0.2c0.5-0.5,1.1,1.9,3.2,2.7c-2.6-0.8-6.4-1.9-9.6-2.5
		C134.2,36.8,122.3,35.4,111.5,35.7 M140.4,28.8c0.5,0,1,0.4,1,1s-0.4,1-1,1c-0.5,0-1-0.4-1-1C139.5,29.2,139.9,28.8,140.4,28.8
		 M117.3,23.3c0.5,0,1,0.4,1,1c0,0.5-0.4,1-1,1c-0.5,0-1-0.4-1-1C116.4,23.7,116.8,23.3,117.3,23.3 M94.2,28.5c0.5,0,1,0.4,1,1
		s-0.4,1-1,1c-0.5,0-1-0.4-1-1S93.6,28.5,94.2,28.5 M138.9,85.7c0,0,0.2-0.6,1.5-0.5s1.6,0.5,1.9,0.9c0.1,0.2,0.2,0.7,0.2,1
		s-0.2,0.5-0.5,0.6c-0.2,0.1-0.5,0.1-0.7,0c-0.3-0.1-0.6-0.4-0.8-0.5c-0.1-0.1-0.3-0.2-0.5-0.4c-0.4-0.2-0.8-0.4-1-0.5
		C138.7,86,138.9,85.7,138.9,85.7 M139.2,85.8c0,0,0.2-0.4,1.1-0.3c1,0.1,1.3,0.4,1.5,0.7c0.2,0.4,0.2,1-0.1,1.1
		c-0.4,0.1-0.9-0.3-1.1-0.5s-1.3-0.8-1.4-0.8C139.1,85.9,139.2,85.8,139.2,85.8 M90.7,77.5C90.7,77.5,90.7,77.5,90.7,77.5
		C90.6,77.5,90.7,77.5,90.7,77.5 M83.5,141.5l5.7,8.2c0,0,0.1,0,0.2,0l0-2.8v-0.1l-0.2-0.2l-4.3-4.8l-1.3-1.6L83.5,141.5z
		 M83.1,140.1h-7.3l0,0l0,0l0,0l0,0l0,0l0,0l0,0l0,0l0,0l0,0l0,0l0,0l0,0l0,0l0,0l0,0l0,0l0,0l0,0l0,0l0,0l0,0l0,0l0,0l0,0l0,0l0,0
		l0,0l0,0l0,0l0,0l0,0l0,0l0,0l0,0l0,0l0,0l0,0l0,0l0,0l0,0l0,0l0,0l0,0l0,0l0,0l0,0l0,0l0,0l0,0l0,0l0,0l0,0l0,0l0,0l0,0l0,0v0l0,0
		l0,0l0,0l0,0l0,0l0,0l0,0l0,0l0,0l0,0l0,0l0,0l0,0l0,0l0,0l0,0l0,0l0,0l0,0l0,0l0,0l0,0l0,0l0,0l0,0l0,0l0,0l0,0l0,0l0,0l0,0l0,0
		l0,0l0,0l0,0l0,0l0,0l0,0l0,0l0,0v0.6c0,0.2,0.1,0.3,0.3,0.3h7.3h0.1v-1H83.1z M106,140.1l-0.6,0.7l-5.2,5.8c0,0.1,0,0.2-0.1,0.2
		l0,2.9c0,0,0.1,0,0.2,0l5.2-7.5l0.5-0.7V140.1z M76.8,95.5C76.8,95.5,76.8,95.5,76.8,95.5C76.8,95.5,76.8,95.5,76.8,95.5
		 M94.8,134.7L94.8,134.7L94.8,134.7L94.8,134.7L94.8,134.7v0.9l0,0v1.8h4.8c0,0,0,0,0-0.1V136l0,0v-1.4h-1.1H94.8z M106,134.3
		l-5.6,3.3l-0.1,8.4l5.4-6c0,0,0.1-0.1,0.1-0.1l0,0l0,0l0,0l0,0l0,0l0,0l0,0l0,0l0,0l0,0l0,0l0,0l0,0l0,0l0,0l0,0l0,0l0,0l0,0l0,0
		l0,0l0,0l0,0l0,0l0,0l0,0l0,0l0,0l0,0l0,0l0,0l0,0v-5.5H106z M106.4,140.1v1.3h7.3c0.2,0,0.3-0.1,0.3-0.3v-0.6
		c0-0.2-0.1-0.3-0.3-0.3l0,0l0,0L106.4,140.1L106.4,140.1z M89.7,149.6h2.6v-7.1c0-1.1,1.1-2.1,2.5-2.1c1.3,0,2.5,0.9,2.5,2.1v7.1
		h2.6l0-2.8c-0.1,0-0.2-0.2-0.2-0.3l0.1-8.7h-9.6l-0.1,8.8c0,0.1-0.1,0.3-0.2,0.3L89.7,149.6z M83.5,139.8L83.5,139.8L83.5,139.8
		L83.5,139.8L83.5,139.8L83.5,139.8L83.5,139.8L83.5,139.8L83.5,139.8L83.5,139.8L83.5,139.8L83.5,139.8L83.5,139.8L83.5,139.8
		L83.5,139.8L83.5,139.8L83.5,139.8L83.5,139.8L83.5,139.8L83.5,139.8L83.5,139.8L83.5,139.8L83.5,139.8L83.5,139.8L83.5,139.8
		L83.5,139.8L83.5,139.8L83.5,139.8L83.5,139.8L83.5,139.8L83.5,139.8L83.5,139.8L83.5,139.8L83.5,139.8L83.5,139.8L83.5,139.8
		L83.5,139.8L83.5,139.8L83.5,139.8L83.5,139.8L83.5,139.8c0.1,0,0.1,0,0.1,0l0,0l0,0l0,0l0,0l0,0l5.4,6l0.1-8.1l-5.9-3.5v5.5H83.5z
		 M89.8,136v1.3h0l0,0l0,0h4.5v-1.9V135v-0.4l0,0l0,0h-2.6l0,0h-2.1v0.7V136z M97.2,134.3V132h-5v2.3l0,0H97.2L97.2,134.3z
		 M97.2,126.5h-5v2.3h5V126.5z M92.3,110.2v0.4v2v0h5v0v-2v-0.4H92.3z M84.3,106.7l0.1-0.5v-5.4v0c0,0,0-0.3-0.5-0.4
		c-0.1,0-0.5,0-1.1,0v1.4c0,0.5-0.3,0.9-0.7,0.9l0,0l0,0l0,0l0,0h0c-0.4,0-0.6-0.5-0.6-0.9v-1.5h-1.4h-1.3v1.4
		c0,0.5-0.3,0.9-0.7,0.9l0,0l0,0l0,0l0,0h0c-0.4,0-0.6-0.5-0.6-0.9v-1.4h-1.1c0,0-0.6-0.1-0.6,0.6c0,0.7,0,4.6,0,4.9
		s0.1,0.7,0.4,0.7l0,0h0h0h0h0h0.1h0.1h0.1h0.1h0.1h0.1h0.1H77h0.1h0.1h0.1h0.1h0.1h0.2H78h0.2h0.2h0.2h0.2H79h0.2h0.2h0.2h0.2h0.2
		h0.2h0.2h0.2h0.2h0.2H81h0.2h0.2h0.2h0.2h0.2h0.2h0.2h0.2h0.2h0.1h0.1H83h0.1h0.1h0.1h0.1h0.1h0.1h0.1h0.1H84h0h0L84.3,106.7
		L84.3,106.7L84.3,106.7z M89.8,134.3h2.1v-2h-2.1V134.3z M91.9,132c0-0.2,0.2-0.4,0.4-0.4h2.2v-2.4h-4.6v2.7L91.9,132L91.9,132z
		 M94.8,131.6h2.4c0.2,0,0.4,0.1,0.4,0.4h2.1v-2.7h-4.8V131.6z M97.6,134.3h2.1v-2h-2.1V134.3z M89.8,128.8h2.1v-2h-2.1V128.8z
		 M91.9,126.5c0-0.2,0.2-0.4,0.4-0.4h2.1v-2.4h-4.6v2.7H91.9z M94.8,126.2h2.4c0.2,0,0.4,0.1,0.4,0.4h2.1v-2.7h-4.8V126.2z
		 M97.6,128.8h2.1v-2h-2.1V128.8z M89.8,123.4h2.1v-2h-2.1V123.4z M92.3,121.4v2h4.9v-2H96c-0.2,0-0.4-0.1-0.4-0.4h-1.9
		c0,0.2-0.2,0.4-0.4,0.4l0,0h-0.8l0,0L92.3,121.4L92.3,121.4z M90.6,121.1L90.6,121.1v-2.7h-0.8v2.7H90.6z M93.8,120.7h0.7v-2.4
		h-0.7V120.7z M95.6,120.7v-2.4h-0.8v2.4H95.6z M98.7,121h0.9v-2.7h-0.9V121z M98.4,121.4L98.4,121.4L98.4,121.4h-0.8v2h2.1v-2H98.4
		z M89.8,117.9h0.8v-1.7l0,0l0,0c0-0.1,0-0.2,0-0.3h-0.8L89.8,117.9L89.8,117.9z M90.7,115.5c0.1-0.3,0.2-0.6,0.4-0.8
		c0.3-0.4,0.7-0.7,1.1-0.7l0,0l0,0c0.5,0,0.9,0.3,1.1,0.7c0.1,0.1,0.2,0.3,0.2,0.5h0.8v-2.4h-4.6v2.7H90.7z M93.7,115.6
		c0,0.2,0,0.4,0,0.6l0,0l0,0v1.7h1.9v-1.7l0,0l0,0c0-0.2,0-0.4,0-0.6H93.7z M95.8,115.2c0-0.2,0.1-0.4,0.3-0.5
		c0.3-0.4,0.7-0.7,1.1-0.7l0,0l0,0c0.5,0,0.9,0.3,1.1,0.7c0.1,0.2,0.3,0.5,0.3,0.8h1v-2.7h-4.8v2.4H95.8z M98.7,115.9
		c0,0.1,0,0.2,0,0.3l0,0l0,0v1.7h0.9v-2H98.7z M89.8,112.5h2.1v-2h-2.1V112.5z M97.6,112.5h2.1v-2h-2.1V112.5z M89.8,110.2h2.1
		c0-0.2,0.2-0.4,0.4-0.4h2.5v-2.4h-4.8c0,0,0,0-0.1,0.1V110.2z M90,107.1h9.6c0,0,0-0.1,0-0.1c0,0,0,0,0-0.1l1.2-2H88.2l1.7,2
		C90,107,90,107,90,107.1L90,107.1z M99.7,107.5h-4.5v2.4h2.1c0.2,0,0.4,0.1,0.4,0.4h2.1V107.5z M79.2,133.9H82v-2.7h-2.7V133.9z
		 M82.7,133.9h0.4c0,0,0-0.1,0-0.2c0.1-0.1,0.2-0.2,0.3-0.2v-2.3h-0.7V133.9z M106,133.6c0.1,0,0.2,0.1,0.3,0.2c0,0,0,0.1,0,0.2h0.5
		v-2.7H106h0L106,133.6z M107.5,133.9h2.7v-2.7h-2.7V133.9z M106,130.5L106,130.5h4.3v-1.8h-3.1l0,0l0,0H106h0L106,130.5L106,130.5z
		 M106,128L106,128h0.8v-1.6H106h0L106,128L106,128z M106,125.7L106,125.7h1.1h0h0h3.1v-1.8h-3.1h0h0H106h0L106,125.7z M106,123.1
		L106,123.1h0.8v-1.7H106h0L106,123.1L106,123.1z M106,120.7L106,120.7h1.1c0,0,0.1,0,0.1,0c0,0,0.1,0,0.1,0h3v-1.6h-3.1h0h0H106h0
		L106,120.7L106,120.7z M106,118.3L106,118.3h0.8v-1.6H106h0L106,118.3z M106,116L106,116h1.1h0h0h3.1v-1.8h-2.8h-0.1l0,0H106h0
		L106,116L106,116z M106,113.4L106,113.4h1v-1.6h-1h0L106,113.4L106,113.4z M106,111.1L106,111.1h1.4h0h0h2.8v-2.3H106v0.1
		c0,0.1,0,0.1,0,0.2L106,111.1z M110.3,111.8h-2.5v1.6h2.5V111.8z M110.3,116.7h-2.7v1.6h2.7V116.7z M110.3,121.4h-2.7v1.8h2.7
		V121.4z M110.3,126.4h-2.7v1.6h2.7V126.4z M79.2,130.5h4.3v-1.8h-1.1l0,0l0,0h-3.1V130.5z M79.2,128H82v-1.6h-2.7V128z M79.2,125.7
		h3.1h0h0h1.1v-1.8h-1.1h0h0h-3.1V125.7z M83.5,126.4h-0.8v1.6h0.8V126.4z M79.2,123.1H82v-1.7h-2.7V123.1z M79.2,120.6h3
		c0,0,0.1,0,0.1,0c0,0,0.1,0,0.1,0h1v-1.6h-1.1h0h0h-3.1L79.2,120.6L79.2,120.6z M83.5,121.4h-0.8v1.8h0.8V121.4z M79.2,118.3H82
		v-1.6h-2.7V118.3z M79.2,116h3.1h0h0h1.1v-1.8h-1.3h0h0h-2.8V116z M83.5,116.7h-0.8v1.6h0.8V116.7z M81.7,111.8h-2.5v1.6h2.5V111.8
		z M82.5,111.8v1.6h1v-1.6H82.5z M79.2,111.1h2.8h0h0h1.3v-1.5c0-0.1,0-0.1,0-0.2l0.1-0.5h-4.3L79.2,111.1L79.2,111.1z M77,100h0.1
		h0c0.2,0,0.4,0.2,0.4,0.4v1.4l0,0l0,0c0,0.1,0,0.3,0.1,0.4l0,0c0,0.1,0.1,0.1,0.2,0.1l0,0l0,0l0,0l0,0c0.1,0,0.2,0,0.2-0.1
		c0.1-0.1,0.1-0.2,0.1-0.4l0,0l0,0v-1.4l0,0c0-0.2,0.2-0.4,0.4-0.4H80l0,0h1.4c0.2,0,0.4,0.2,0.4,0.4v1.4l0,0l0,0
		c0,0.1,0,0.3,0.1,0.4l0,0c0,0.1,0.1,0.1,0.2,0.1l0,0l0,0l0,0l0,0c0.1,0,0.2,0,0.2-0.1c0.1-0.1,0.1-0.2,0.1-0.4l0,0l0,0v-1.3l0,0
		l0,0c0-0.1,0.1-0.3,0.2-0.3v-0.7v-3.6H77v3.6L77,100L77,100z M90.9,101.1h2.4v-2.1h-2.4V101.1z M95.9,101.1h2.4v-2.1h-2.4V101.1z
		 M84.9,106.9l-0.5,2l4.7-1.8l-1.4-1.6L84.9,106.9z M105.2,108.5l-0.3-1.6l-3.4-1.5l-0.9,1.5L105.2,108.5z M98.7,98.5L98.7,98.5v-2
		H97l0,0h-2.4V98v0.6V99h0.9c0-0.2,0.2-0.4,0.4-0.4h2.4c0.2,0,0.4,0.2,0.4,0.4l0,0L98.7,98.5L98.7,98.5z M94.2,98.5v-0.6v-1.4h-2.1
		l0,0h-1.6v1.4v0.6v0.4h0.1c0-0.2,0.2-0.4,0.4-0.4h2.4c0.2,0,0.4,0.2,0.4,0.4h0.5L94.2,98.5L94.2,98.5z M96,94v0.3
		c0,0.1-0.1,0.2-0.2,0.2h-2.4c-0.1,0-0.2-0.1-0.2-0.2V94v-0.2h-0.6v0.3v0.6v1.4h1.7h0.4h2v-2l0,0v-0.3H96V94z M91.7,77.5L91.7,77.5
		C91.6,77.5,91.6,77.5,91.7,77.5 M87.5,82.1v-4.4c0-0.4,0.5-1,0.9-1.6c0.4-0.5,1.4-0.9,1.3-0.1c0,0.7,0.2,1.6,0.8,1.6h1.1
		c0.3-0.1,0.6-0.3,0.6-0.8c0-1.1,0-1.6,0.8-1.6c0.8,0,2.8,0,2.8,0s0.7,0,0.6,0.6c-0.1,0.6,0,1.1,0,1.1s0,0.6,1,0.6
		c1,0,1.4-0.3,1.5-1c0-0.6,0-1.6,0.7-1.2c0.7,0.4,1.3,1,1.5,1.2c0.1,0.3,0.3,0.5,0.3,0.9v4.6L87.5,82.1L87.5,82.1z M88,83.4
		c-0.2-0.2-0.3-0.5-0.5-0.9h13.8c0,0,0,0.5-0.2,0.8c0,0,0,0.1,0,0.1s0,0,0,0L88,83.4L88,83.4z M75.4,93.8h8.9
		c0.1-0.1,0.2-0.3,0.2-0.5v-3.4c0-0.8-0.4-1.4-1.2-1.4c-0.9,0-0.7,1.4-0.7,2.1c0,0.5-0.4,0.9-0.9,0.9c-0.5,0-0.9-0.4-0.9-0.9v-2.1
		h-2v2.1c0,0.5-0.4,0.9-0.9,0.9S77,91.1,77,90.6v-1.4c0-0.7-0.5-0.7-0.6-0.7c-0.7,0-1.3,0.5-1.3,1.3v3.6
		C75.2,93.5,75.3,93.7,75.4,93.8 M76.9,95.4c0,0,0.1,0,0.1,0h5.6c0.1,0,0.3,0.1,0.3,0.2l0,0l1-1.5h-8.2L76.9,95.4z M87.5,99.8
		l-2.7,1.6v4.7l2.6-1.4l0,0l0,0L87.5,99.8L87.5,99.8z M101.5,104.6L101.5,104.6L101.5,104.6l3.3,1.5l0-4.5l-3.3-1.9V104.6z
		 M106.1,88.5c-0.7,0-1.3,0.5-1.3,1.3v3.6c0,0.3,0.3,0.6,0.6,0.6h8.3c0.3,0,0.5-0.3,0.5-0.5V90c0-0.8-0.4-1.4-1.2-1.4
		c-0.9,0-0.7,1.4-0.7,2.1c0,0.5-0.4,0.9-0.9,0.9c-0.5,0-0.9-0.4-0.9-0.9v-2.1h-2v2.1c0,0.5-0.4,0.9-0.9,0.9s-0.9-0.4-0.9-0.9v-1.4
		C106.7,88.5,106.2,88.5,106.1,88.5 M106.6,95.5c0,0,0.1-0.1,0.2-0.1h5.6c0.1,0,0.1,0,0.2,0l0.8-1.2h-8L106.6,95.5z M106.8,100v-0.7
		v-3.6h5.6v3.6v0.7c-0.2,0-0.4,0.2-0.4,0.4l0,0l0,0v1.4l0,0l0,0c0,0.2,0,0.3-0.1,0.4c0,0.1-0.1,0.1-0.2,0.1l0,0l0,0l0,0l0,0
		c-0.1,0-0.2,0-0.2-0.1l0,0c-0.1-0.1-0.1-0.2-0.1-0.4l0,0l0,0v-1.5c0-0.2-0.2-0.4-0.4-0.4h-1.4l0,0h-1.3c-0.2,0-0.4,0.2-0.4,0.4l0,0
		v1.4l0,0l0,0c0,0.2,0,0.3-0.1,0.4c0,0.1-0.1,0.1-0.2,0.1l0,0l0,0l0,0l0,0c-0.1,0-0.2,0-0.2-0.1l0,0c-0.1-0.1-0.1-0.2-0.1-0.4l0,0
		l0,0v-1.4C107.2,100.2,107.1,100,106.8,100 M90.4,85.6v2.6h1.7l0,0v0l0,0c0,0,0,0,0,0c0,0,0,0,0.1-0.1l0,0l0,0l0,0l0,0l0,0l0,0l0,0
		l0,0l0,0l0,0l0,0l0,0l0,0l0,0l0,0l0,0l0,0l0,0l0,0l0,0l0,0l0,0l0,0l0,0l0,0l0,0l0,0l0,0l0,0l0,0l0,0l0,0l0,0l0,0l0,0l0,0l0,0l0,0
		l0,0l0,0l0,0l0,0l0,0l0,0l0,0l0,0h0H94v-2.3L90.4,85.6L90.4,85.6z M94.6,85.6v2.3h2c0.1,0,0.3,0.1,0.4,0.2h1.6v-2.6L94.6,85.6
		L94.6,85.6z M92.5,88.4v2.4h0.6v-0.5c0-0.9,0.6-1.6,1.4-1.6c0.8,0,1.4,0.7,1.4,1.6v0.5h0.1h0.5h0v-2.3L92.5,88.4L92.5,88.4z
		 M96,93.4h0.6c0.2,0,0.4,0.1,0.4,0.3h0.4h1.3v-1.6v-1.1h-2.1H96L96,93.4L96,93.4z M97,94.1v2h1.6v-2h-1.3H97z M92.1,96.1v-2h-0.4
		h-1.3v2H92.1z M90.5,91L90.5,91L90.5,91l-0.1,2.7h1.3h0.4c0-0.2,0.2-0.3,0.4-0.3h0.6v-2V91l0,0H90.5z M97,88.5v0.2v1.2v0.8h1.6
		v-0.8v-1.2v-0.2H97z M90.4,88.5v0.2v2h1.6v-0.8v-1.4H90.4z M73.1,65h43.1v105.5c-24.8-0.6-44.7-17.7-44.7-38.7v-0.1V66.3
		C71.5,65.6,72.1,65,73.1,65 M117.7,48.6c15.1,0,27.4,1.9,27.4,4.2c0,2.3-12.3,4.2-27.4,4.2s-27.4-1.9-27.4-4.2
		C90.2,50.5,102.5,48.6,117.7,48.6 M84.9,45c-0.1,0-0.3,0-0.3-0.2c0-0.1,0-0.3,0.2-0.3c0,0,14.6-4.8,24.1-5.4
		c4.8-0.3,8.2-0.4,11.2-0.4s5.6,0.3,8.5,0.5l0,0l0,0l0,0c0.8,0.1,1.8,0.2,2.9,0.4c1.1,0.2,2.2,0.4,3.3,0.6
		c5.9,1.2,12.7,3.1,13.8,3.5c0.1,0,0.2,0.2,0.2,0.3s-0.2,0.2-0.3,0.2c-1.2-0.4-7.9-2.2-13.8-3.5c-1.1-0.2-2.3-0.5-3.3-0.6
		c-1.1-0.2-2-0.3-2.8-0.4l0,0h0c-3-0.3-5.6-0.5-8.5-0.5c-3,0-6.4,0-11.2,0.4C99.4,40.3,84.9,45,84.9,45 M91.3,45.2c0.5,0,1,0.4,1,1
		c0,0.5-0.4,1-1,1c-0.5,0-1-0.4-1-1C90.4,45.7,90.8,45.2,91.3,45.2 M94.7,45.8l2.6-2.6l4.2,0.9l-3.2,2.6L94.7,45.8z M106.4,42.2
		c0.9,0,1.6,0.7,1.6,1.6s-0.7,1.6-1.6,1.6s-1.6-0.7-1.6-1.6S105.6,42.2,106.4,42.2 M143.4,45.2c0.5,0,1,0.4,1,1c0,0.5-0.4,1-1,1
		c-0.5,0-1-0.4-1-1C142.4,45.7,142.8,45.2,143.4,45.2 M140.3,45.8l-3.6,0.9l-3.2-2.6l4.2-0.9L140.3,45.8z M128.3,42.2
		c0.9,0,1.6,0.7,1.6,1.6s-0.7,1.6-1.6,1.6s-1.6-0.7-1.6-1.6S127.5,42.2,128.3,42.2 M112.4,41.8h10.1c0.1,0,0.2,0.1,0.2,0.2v2.2
		c0,0.1-0.1,0.2-0.2,0.2h-10.1c-0.1,0-0.2-0.1-0.2-0.2V42C112.2,41.9,112.3,41.8,112.4,41.8 M70.5,62.4h92.6l0,0l0,0
		c0.5,0,1,0.2,1.4,0.5c0.4,0.3,0.6,0.7,0.6,1.1l0,0l0,0v68.1v0v0l0,0l0,0l0,0l0,0c0,11.2-5.4,21.3-14.2,28.7
		c-8.7,7.3-20.8,11.8-34.1,11.9l0,0l0,0c-13.3,0-25.4-4.5-34.1-11.9c-8.7-7.4-14.2-17.5-14.2-28.7l0,0l0,0l0,0v0v0V64l0,0l0,0
		c0-0.5,0.2-0.9,0.6-1.1C69.4,62.6,69.9,62.4,70.5,62.4L70.5,62.4L70.5,62.4z M163.1,62.9H70.5l0,0l0,0c-0.4,0-0.7,0.1-1,0.3
		c-0.2,0.2-0.4,0.5-0.4,0.7l0,0l0,0v68.1l0,0v0v0l0,0l0,0c0,11,5.3,21,13.9,28.2c8.6,7.3,20.6,11.7,33.7,11.7l0,0l0,0l0,0l0,0
		c13.2,0,25.1-4.5,33.7-11.7c8.6-7.2,13.9-17.2,13.9-28.3l0,0l0,0l0,0v0v0v0V64l0,0l0,0c0-0.3-0.1-0.5-0.4-0.7
		C163.8,63.1,163.5,62.9,163.1,62.9L163.1,62.9L163.1,62.9z M130.7,114.6L130.7,114.6c0.1-0.2,0.3-0.3,0.5-0.2
		c0.4,0.1,0.7,0.1,0.8,0.1c0.4-0.4,2.3-2.1,2.2-3.7c0-0.2,0-0.4,0-0.5l0,0c0-0.1,0-0.2,0.1-0.3c0-0.1,0.1-0.1,0.2-0.1l0,0l0,0l0,0
		c0.3,0,0.4,0.2,0.5,0.5c0.2,0.6,0.8,2.1,1.8,2.5l0,0h0l0,0l0,0c0.1,0,0.1,0.1,0.2,0.2c0,0.1-0.1,0.2,0,0.2l0,0c0,0,0,0,0.1,0
		c0.1-0.1,0.2-0.2,0.4-0.2h0l0,0l0,0c0,0,0.1,0,0.1,0c0.1,0,0.3,0.1,0.3,0.3c2.2-0.5,5.3-3,6.1-2.6c0.9,0.5,0.4,1.8,1.2,1.6
		c0.8-0.3,0.7-2.2,1.4-1.1c0.8,1.1,1.6,2.2,2,2.3c0.4,0.1,1.7,1.3,2.7,0s0.4-1.2-0.3-2.2s-1.1-1.3,0.1-1.9c1.3-0.6,2-2.3,1.4-2.5
		c-0.6-0.2-0.5,1.1-1.1,1.1s-2.2-1.1-1.9-1.9c0.3-0.8-1-1.6-1-1.6s1.6,0.3,1.9-1.3c0.4-1.6-1.1-3.3-1.4-3.6c-0.3-0.2,0.2-2,0-2.7
		s-0.9-0.8-1.3-2c-0.4-1.2,1.7-1.2,0.5-3c-1.2-1.7-2-3.4-2-3.4l0,0l0,0l0,0c0,0-0.1,0-0.2-0.1l0,0c-0.5-0.2-2.1-0.6-2.2,2
		c-0.2,3.1-4.5,3.3-4.5,3.3l0,0l0,0l0,0l0,0l0,0l0,0l0,0l0,0l0,0l0,0l0,0l0,0l0,0l0,0l0,0l0,0l0,0l0,0l0,0c0,0,0,0-0.1,0l0,0h0l0,0
		l0,0l0,0c-0.1,0-0.4-0.1-0.6-0.1l0,0c0,0-0.1,0-0.1,0l0,0l0,0h0l0,0c-0.1,0-0.1,0-0.2,0l0,0l0,0c0,0-0.1,0-0.1,0l0,0
		c0,0-0.1,0-0.1,0l0,0l0,0c-0.5,0.2-0.9,0.7-1.1,1.7c-0.6,2.7-0.6,4.8-1.7,5.2c-1.1,0.4-2-1-2.2,0c-0.3,1,1,1.7,0.6,2.8
		c-0.3,1.1-0.3,0.6-1.4,0.7c-1.1,0-1.1,1.3-1.1,2.5c0,1.3-1.6,2.5-1.8,3.2c-0.2,0.7-2.1,2.2-0.4,3.9
		C129.7,114.1,130.2,114.5,130.7,114.6 M138,113.7c1.1-0.2,2.5-1,3.7-1.6c1.1-0.6,2.1-1.1,2.2-1l0,0c0.3,0.2,0.4,0.5,0.5,0.8
		c0,0.1,0,0.1,0,0.2c0.1,0.5,0.4,0.7,1,0.5c0.5-0.2,0.7-0.7,0.9-1.1l0,0c0-0.1,0.1-0.3,0.1-0.3c0.1,0-0.1,0.1,0,0.2v0
		c0.1,0.2,0.2,0.4,0.3,0.5s0.2,0.3,0.3,0.5c0.4,0.5,0.7,0.9,1,1.2c0.5,1.8,1,4.1,2,5.3c0.7,0.9,2.2,2,3.4,4.5c0,0-0.1,0-0.1,0.1l0,0
		l0,0c0,0-0.1,0.1-0.1,0.2l0,0c0,0,0,0.1,0,0.2c0.1,0.4,0.3,0.7,0.5,1.1s0.3,0.9,0.4,1.3c0,0.2,0.3,0.3,0.5,0.3
		c0,0.2,0.1,0.4,0.1,0.6c0.6,2.9,0.5,5.2,0.4,6.5l0,0c0.2,1.2,1.1,1.8,1.9,1.3c0.9-0.5,0.9,0.4-0.3,1.6c-1.1,1.2-2.1,0.5-2.8,0.2
		c-0.7-0.3-0.5,0.6,0.3,1.1c0.7,0.5,2.2,3.1,2.4,4.1c0.2,1-0.9,0.2-1.2,0c-0.4-0.2-0.6,1.1-0.1,1.8c0.4,0.7,0.7,2.9,0.3,3.4
		c-0.4,0.5-0.8-0.2-1.6-0.4c-0.7-0.1-2.5,1.6-2.4,2.4c0,0.9-0.5,1.1-1.1,1.4c-0.6,0.2-0.7-1.5-1.1-0.9c-0.4,0.6-0.6,0.5-1.3,0.4
		c-0.6-0.2-0.1-1.1-0.7-0.6c-0.6,0.5-1.4,0-0.9-0.9c0.5-1,2.5-1.8,3.9-1.7c0.7,0,1-0.6,1-1.2c-0.2-0.3-0.4-0.5-0.5-0.7
		c-0.5-0.7-0.7-2.1-0.1-3.1c0.5-1-0.3-1.7-1.6-2.2c-1.2-0.5-1.6,1.7-3.2,1.9s-3.7-1.2-3.8-3.8c0-0.5,0-1.1,0.1-1.7
		c0.1,0,0.2-0.1,0.2-0.1c0,0,0.1,0,0.1-0.1l0,0l0,0c0,0,0.1-0.1,0.1-0.2c0-0.3,0.1-0.5,0.2-0.8c0-0.3,0.1-0.5,0.2-0.9
		c0.5-1.5,1.3-2.9,2.5-4.3l0,0c0.2-0.3,0.5-0.5,0.5-0.8c0.1-0.3,0.2-0.5,0.3-0.9c0.2-1.4-0.7-2.7-1.5-3.4c0,0-0.1-0.1-0.1-0.1l0,0
		l-0.1,0l0,0l0,0c-0.1,0-0.3-0.1-0.6-0.2c-0.1-0.1-0.2-0.2-0.2-0.2s-3.5-0.2-6-2.9c-0.5-0.5-0.8-1.4-0.9-2.3c0,0,0.1,0,0.1,0
		c0.1,0,0.2-0.2,0.2-0.4l0,0c0-0.8,0-1.6,0.1-2.5C137.6,115.2,137.8,114.5,138,113.7 M134.5,110.7
		C134.5,110.7,134.5,110.7,134.5,110.7c0-1.5,0.3,1.9,2.2,2.7c0.4,0.8,0.5,0.1,0.9,0.1l0,0c-0.4,1.6-0.7,3.6-0.6,5.2
		c-0.3,0.1-0.6,0.4-0.8,1c-0.5,1.3-0.7,1.2-1.4,1.1c-0.7-0.2-1.9,1-3.1,1.9c-1.2,1-1.3,1.6-1.5,2.6c-0.2,0.9-1.1-0.5-1.6-0.8
		c-0.5-0.4-1.4,0-1.6,0.5c-0.2,0.5-0.5,0.8-1.1,1.1c-0.6,0.2-0.9-0.6-1.2-0.5c-0.3,0.2-0.8,1.3-1.9,1.1s0-1.6,0-2
		c0-0.5-0.7-1.1-1.1-1.8c-0.5-0.8,2.1-0.9,3.2-0.7c1.1,0.2,1.4-0.9,2.1-2c0.7-1.1,1.6-1.1,1.7-0.5c0.1,0.6,0.7,0,0.7,0
		s1.3-3.4,1.4-4.2c0-0.1,0.1-0.3,0.2-0.5c0.7,0.2,1.1,0.1,1.1,0.1s2.5-2.1,2.4-4V110.7L134.5,110.7z M138.5,101.3
		c-0.1-0.2-0.1-0.4,0.1-0.5c0.2-0.1,0.4-0.1,0.5,0.1c0,0,2.1,3,0.4,4.1l0,0l0,0c-0.1,0.1-0.3,0.2-0.5,0.3c-0.8,0.5-1.1,0.7-0.7,2.3
		c0.1,0.7,0.3,1.1,0.4,1.4c0.2,0.7,0.3,0.8-0.1,1.6c-0.1,0.2-0.3,0.2-0.5,0.1c-0.2-0.1-0.2-0.3-0.1-0.5c0.3-0.5,0.2-0.5,0.1-1
		c-0.1-0.3-0.2-0.8-0.4-1.5c-0.5-2.1-0.1-2.3,1.1-3.1c0.1-0.1,0.3-0.2,0.5-0.3l0,0C140.2,103.7,138.5,101.3,138.5,101.3 M144.4,94.6
		c0.1-0.1,0.4-0.1,0.5,0c0.1,0.1,0.2,0.4,0,0.5c0,0-1.1,1.1-0.7,1.8l0,0c0.1,0.2,0.3,0.4,0.5,0.6c0.6,0.6,1.1,1.2,0.6,2.4
		c-0.3,0.6-0.6,1.3-0.7,1.8c-0.1,0.5-0.1,1,0.1,1.5v0c0.1,0.1,0.1,0.3,0.2,0.5c0.5,0.9,0.9,1.6,0.1,2.7c-0.1,0.2-0.4,0.2-0.5,0.1
		c-0.2-0.1-0.2-0.4-0.1-0.5c0.5-0.7,0.2-1.2-0.2-1.9c-0.1-0.1-0.2-0.3-0.2-0.5v0c-0.3-0.6-0.3-1.2-0.2-1.9c0.1-0.6,0.4-1.3,0.7-2
		c0.4-0.7,0-1.1-0.5-1.6c-0.2-0.2-0.5-0.5-0.6-0.7l0,0C142.9,96.2,144.4,94.6,144.4,94.6 M139.7,93.3L139.7,93.3L139.7,93.3
		L139.7,93.3L139.7,93.3L139.7,93.3L139.7,93.3L139.7,93.3L139.7,93.3L139.7,93.3l-0.1,0l0,0l0,0l0,0c-0.1,0-0.2,0-0.3-0.1l0,0l0,0
		l0,0c-0.1,0-0.2,0-0.4,0l0,0l0,0h-0.1l0,0l0,0h0l0,0l0,0l0,0l0,0l0,0l0,0h0l0,0l0,0h0h0l0,0l0,0c0,0-0.1,0-0.1,0c0,0-0.1,0-0.1,0
		l0,0l0,0l0,0l0,0l0,0l0,0l0,0l0,0h0l0,0h0l0,0l0,0h0h0l0,0h0l0,0l0,0l0,0c-0.1,0-0.2,0.1-0.3,0.1c-0.2-0.3-0.5-0.9-1.3-0.7
		c-1.2,0.4-2.3-0.4-2.7-0.9s0.9-1.8,1.4-1.4c0.5,0.4,0.8,0.6,1.2,0.7c0.5,0.1,1.1,0.6,1.8,0.6c0.7,0,1-2,0.3-2.7
		c-0.6-0.6,0-1.6-1-2.1c-1-0.5,0.2,1.9-1.7,0.6c-1.4-1-0.6-1.3-0.3-1.7c0.3,0.2,0.7,0.5,1.6,0.6c0.2,0,0.4-0.1,0.4-0.3
		c0-0.2-0.1-0.4-0.3-0.4c-1.4-0.2-1.3-0.5-1.3-0.5c0-0.1,0-0.3-0.1-0.4c0.3-0.2,0.7-0.3,0.7-0.3s3.4-0.2,5-0.2
		c1.6,0,3.4,1.1,3.4,1.1s1.3-0.4,1.9,0c0.5,0.3,1,1.7,0.3,2.7c0,0,0,0.1-0.1,0.1c0,0,0-0.1-0.1-0.1l0,0l0,0h0l0,0l0,0l0,0l0,0h0
		l-0.1,0l0,0h0l0,0h0c-0.3-0.1-1-0.3-1.5,0c-0.6,0.2-1.1,0.9-1.2,2.3c0,0.1,0,0.2,0,0.3C143.4,92.9,140.3,93.2,139.7,93.3
		L139.7,93.3z M128.8,110.2c-0.6-0.2-1.4-0.6-2.1-0.9c-1.8-0.8-2.1-3.8-2.7-5.3c-0.5-1.4-0.4-1.8-1.4-1.8c-1,0-0.9-1.3-0.5-2.4
		c0.3-1.1,0.3-2.2,0-2.8c-0.4-0.6-0.6-1-0.5-1.6c0-0.6-0.1-1-0.4-1.8s0.8-1.2,1.4-1.3c0.6,0,0.2,1.4,0.3,1.4c0.1,0,0.1-1.2,0.6-1.4
		c0.6-0.2,0.5,1.3,0.7,0.9c0.1-0.4,0.4-0.7,0.8-0.8c0.4,0,1.1,1.1,1.4,2.1s-0.2,3-0.8,4.7c-0.5,1.6,0.3,2.7,0.8,3.5
		c0.5,0.8,1.6,1.4,2.5,1.5c0.8,0,1.3,1,1.3,1.6c0,0.2,0.4,0.4,0.8,0.5v0.1l0,0v0l0,0c0,0.6-0.5,1.4-1.1,1.9l0,0
		c-0.3,0.4-0.6,0.7-0.7,1.1l0,0l0,0l0,0l0,0c0,0.1-0.2,0.3-0.3,0.5l0,0L128.8,110.2z M137.9,91.3c-0.5-0.5-1.4-1.4-2.1-1.7
		c-1.1-0.4-2.4,0-3.3,0.3c-0.8,0.2-2.4,0.5-3.4,0.2c-0.9-0.4-1.3-1.3-1.2-1.9c0-0.6,1.1-0.3,1.3,0.3s2,0.5,3,0.4
		c1-0.2,2.9-0.4,4.3,0c0.9,0.2,1.7,1.1,2.1,1.6c0,0.1,0,0.3,0,0.5c0,0.2-0.1,0.4-0.2,0.5c0,0,0,0-0.1,0
		C138.1,91.4,138,91.3,137.9,91.3 M144.8,124.9c1,1,2.2,2.9,0.6,4.6c-1.7,1.9-2.7,4.1-3,6.1c0,0-1.6,0.7-1.9,1.2
		c-0.3,0.6,1.2,2.6,1.2,4.1c0,1.5-2,2.7-2.5,2.8c-0.5,0.1-0.3-1.5-0.5-0.5c-0.2,1-1.1,0.6-1.2,0.3c-0.1-0.4-0.5-1.8-0.7-0.5
		s-1.8,2.5-2.4,3.2c-0.6,0.7-1.1,0-1.1-0.4c0-0.4-1.2-0.2-1.9,0.1c-0.7,0.3-0.6,1.1-1,1.3c-0.4,0.3-0.3-0.7-0.5-0.4
		c-0.2,0.4-0.3,0.4-1.1,0.4c-0.8,0-0.2-1.3-0.5-1.3c-0.3,0-0.1,0.6-0.8,0.6s-0.2-0.9-0.5-0.8s-0.3,0.2-1-0.3
		c-0.7-0.5,0.7-1.2,1.5-1.5c0.8-0.3,1.2-0.1,1.6-0.5s0.8-0.1,1.1,0c0.3,0.1-0.1,1.4,2.5,0.4c2.6-1.1,2.2-3.6,2.4-4
		c0.2-0.5-0.1-0.8-0.5-1.1c-0.4-0.3-0.3-0.9,0-1.5c0.3-0.6-0.9-1.1-1.9-2.9c-1.1-1.8,0.6-4.8,0.9-5.3c0.3-0.4,0.1-1.1-0.4-1.6
		c-0.5-0.4,0.2-1.2,0.7-0.5s1.4,0,1.4,0s-0.2-0.4,1.1-1.2C140.3,123.3,144.8,124.9,144.8,124.9 M147.7,77c-0.5,0.3-2.8-1.2-1.7-1.7
		c1.1-0.5,2.3,0.6,2.3,0.6s-0.5-1.3-0.3-2.1c0.3-0.8,1.1-0.2,1.6,0.8c0.6,1,1.1,1.1,3.2,2.4c2.1,1.4,4.9,5.4,4.9,7.7
		c0,2.3-1,9.3-1.1,10.5c0,1.2,0.4,3.4,1.6,3.7c1.1,0.3-0.6,4.8-0.8,6.8c-0.3,2.1,1.2,4.2,2.5,7.2c1.4,3.1,0.6,7.7-0.6,10
		c-0.8,1.6-3.3,2.7-4.7,3.2c-0.3-1-0.5-1.8-0.9-2.6l0,0c0,0,3.4-0.7,4.2-1.9c0.8-1.2,1.1-5.5-0.3-8.3c-1.3-2.8-2.5-7.8-2.3-9.2
		c0.3-1.4,1.5-3.2,1.1-3.7c-0.4-0.6-0.9-3.1-1.1-4.2c-0.1-1.1,1-6,0-11.1c-1.1-5.1-2.6-5.4-4.6-6.4c-2-1-2.6-0.5-3.7,0.2
		s-1.4,1.3-1.6,0.2C145.5,78,147.7,77,147.7,77"/>
</g>
</svg>
